<svg width="288" height="290" viewBox="0 0 288 290" fill="none" xmlns="http://www.w3.org/2000/svg">
<g clip-path="url(#clip0_1_76)">
<path d="M26.7521 191.735L32.0719 194.302L44.509 175.013L36.6569 171.225L26.7521 191.735Z" fill="#FFB6B6"/>
<path d="M23.8854 197.191L40.2452 205.085L40.3451 204.878C41.1602 203.19 41.2711 201.247 40.6535 199.478C40.0358 197.708 38.7401 196.256 37.0514 195.441L35.1572 191.733L28.4872 191.309L27.0591 190.62L23.8854 197.191Z" fill="#2F2E41"/>
<path d="M66.3526 198.925L72.2595 198.925L75.07 176.15L66.3513 176.15L66.3526 198.925Z" fill="#FFB6B6"/>
<path d="M66.1444 205.085L84.3105 205.084V204.854C84.3103 202.98 83.5653 201.183 82.2394 199.857C80.9134 198.532 79.115 197.787 77.2397 197.787H77.2393L73.921 195.271L67.7299 197.788L66.1441 197.788L66.1444 205.085Z" fill="#2F2E41"/>
<path d="M72.2072 93.2989L78.9765 139.957L79.5517 150.445L76.0016 183.172L77.4427 186.343L73.4164 188.825H65.2235L64.7887 154.254L58.6451 125.301L57.6948 158.118L56.3795 160.653C51.4801 171.764 44.8803 175.401 40.2144 183.706L32.0212 179.27L32.193 175.962C30.5471 175.129 34.6643 172.695 35.0599 170.894L35.7764 167.669L40.5558 157.774L40.7382 154.289L39.4302 130.588L40.0456 98.6708L50.7926 90.4568L72.2072 93.2989Z" fill="#2F2E41"/>
<path d="M61.9119 27.1512C67.7907 27.1512 72.5563 22.3879 72.5563 16.512C72.5563 10.6362 67.7907 5.87283 61.9119 5.87283C56.0332 5.87283 51.2675 10.6362 51.2675 16.512C51.2675 22.3879 56.0332 27.1512 61.9119 27.1512Z" fill="#FFB6B6"/>
<path d="M63.3763 101.91C49.3435 101.91 38.8169 96.6273 38.6729 96.5535L38.5482 96.4895L38.5866 96.3549C38.9633 95.0362 39.3202 92.8239 38.6744 92.5014C38.6049 92.4748 38.5433 92.4311 38.4952 92.3743C38.4471 92.3175 38.4141 92.2496 38.3992 92.1767C38.3622 91.9116 38.6277 91.6693 38.9953 91.3338C39.7088 90.6825 40.6859 89.7906 40.1128 88.359C39.1025 85.8347 41.9433 72.8991 42.1269 72.0699L40.9136 51.4506C40.6925 47.5165 41.8334 43.6263 44.1443 40.434C46.4553 37.2417 49.7954 34.942 53.6031 33.9216L53.6301 33.9144L53.658 33.9163C54.0525 33.9384 54.4703 32.5992 54.7871 31.6192C55.2552 30.1707 55.5643 29.2807 56.0915 29.3185C60.1733 29.5816 62.8932 29.7537 64.7056 29.8662C68.1421 30.0796 68.7442 34.2573 68.8182 34.9243C72.5172 37.1771 75.4099 40.5401 77.0836 44.5333C78.7573 48.5266 79.1264 52.9461 78.1385 57.1615L76.4257 64.5228L74.9122 68.0597L75.4109 75.0377C77.7586 76.9889 77.0858 80.9805 76.9521 81.6549C79.1891 83.968 77.8154 86.6902 77.4822 87.2667C78.0548 87.966 78.4445 88.7966 78.6162 89.6838C78.7879 90.571 78.7362 91.487 78.4659 92.3493L80.5262 99.0418L80.3708 99.0959C74.9045 100.982 69.1591 101.933 63.3763 101.91Z" fill="#3F3D56"/>
<path d="M129.322 32.0747C128.952 31.5958 128.48 31.2039 127.942 30.9268C127.403 30.6496 126.81 30.4938 126.205 30.4705C125.599 30.4471 124.996 30.5567 124.438 30.7915C123.88 31.0263 123.379 31.3807 122.973 31.8296L89.3149 32.0127L79.7521 36.6303L78.5117 41.9226L93.9637 41.2769L123.458 37.9098C124.258 38.5425 125.262 38.86 126.28 38.8021C127.299 38.7442 128.26 38.315 128.983 37.5958C129.706 36.8765 130.14 35.9172 130.202 34.8996C130.265 33.8821 129.952 32.8769 129.322 32.0747Z" fill="#FFB6B6"/>
<path d="M91.5025 43.1391L78.4011 49.3338L66.2547 44.2517L66.2426 44.1535C66.0137 42.3578 66.3291 40.5348 67.148 38.9202C67.9669 37.3056 69.2516 35.9737 70.8359 35.0967C73.3707 33.6845 76.1339 32.7284 78.9997 32.2717C87.0341 31.0771 88.6636 30.6183 88.6791 30.6137L88.8559 30.5625L91.5025 43.1391Z" fill="#3F3D56"/>
<path d="M52.8862 23.1994C52.7548 23.2 52.6242 23.1789 52.4996 23.1371C52.0106 22.9229 51.6017 22.5596 51.3315 22.0993C49.4448 19.3872 48.5339 15.7713 48.6242 11.3518C48.6624 9.48214 48.8741 7.09162 50.1841 5.18611C51.2858 3.58382 53.5143 2.31226 55.5911 2.95054C55.5674 2.53544 55.6597 2.12195 55.8574 1.75618C56.0552 1.39041 56.3507 1.08675 56.7111 0.879086C57.5069 0.47045 58.3855 0.248619 59.28 0.230472C61.3893 0.032873 63.5698 -0.171389 65.7056 0.233132C68.1005 0.687144 70.0586 1.92089 71.0779 3.61797L71.0988 3.67128L71.306 4.67694C71.3338 4.81213 71.3906 4.93969 71.4725 5.05082C71.5544 5.16195 71.6594 5.25403 71.7803 5.3207C71.9012 5.38736 72.0352 5.42704 72.1729 5.437C72.3107 5.44695 72.4489 5.42695 72.5782 5.37837C72.7192 5.32529 72.8717 5.30989 73.0206 5.3337C73.1694 5.35751 73.3095 5.4197 73.4269 5.51414C73.5444 5.60858 73.6352 5.732 73.6904 5.87222C73.7455 6.01244 73.7631 6.16461 73.7415 6.31372L73.6837 6.71376L74.2861 6.60111C74.4368 6.57301 74.5923 6.58535 74.7366 6.63687C74.881 6.68838 75.0092 6.77722 75.108 6.89434C75.2069 7.01147 75.2729 7.15269 75.2994 7.30362C75.3258 7.45455 75.3118 7.6098 75.2587 7.75355L75.0885 8.21356C75.2132 8.21435 75.3363 8.24066 75.4504 8.29086C75.5645 8.34107 75.6671 8.4141 75.7518 8.50546C75.8737 8.6364 75.9504 8.80288 75.9709 8.98055C75.9914 9.15822 75.9544 9.33777 75.8655 9.49295C75.1924 10.6436 74.2373 11.604 73.0902 12.2838C72.4634 12.6608 71.7779 12.9302 71.0621 13.0811C66.417 14.083 61.6277 14.2269 56.9308 13.5057C57.2089 14.4317 57.3159 15.4005 57.2467 16.3648C57.206 16.9116 57.0163 17.4369 56.6982 17.8837C56.3801 18.3305 55.9458 18.6818 55.4423 18.8996C55.2269 18.9696 55.0064 19.0227 54.7828 19.0585C54.5691 19.0918 54.3585 19.143 54.1532 19.2115C53.8491 19.3231 53.5798 19.513 53.3724 19.7619C53.1651 20.0108 53.0272 20.31 52.9725 20.6292C52.9178 20.9484 52.9482 21.2764 53.0608 21.5801C53.1735 21.8838 53.3642 22.1524 53.6138 22.3589L54.0802 21.873L53.9285 22.4907C53.8968 22.6109 53.8402 22.7232 53.7624 22.8201C53.6845 22.917 53.5871 22.9965 53.4764 23.0533C53.2948 23.1501 53.092 23.2003 52.8862 23.1994Z" fill="#2F2E41"/>
<path d="M124.167 152.866C157.74 152.866 184.957 126.078 184.957 93.0334C184.957 59.9887 157.74 33.2007 124.167 33.2007C90.5935 33.2007 63.3768 59.9887 63.3768 93.0334C63.3768 126.078 90.5935 152.866 124.167 152.866Z" fill="#E6E6E6"/>
<path d="M174.536 93.0334C174.544 100.208 172.968 107.296 169.92 113.792C169.826 113.992 169.729 114.193 169.633 114.393C164.972 123.936 157.398 131.754 148.005 136.717C147.808 136.821 147.611 136.924 147.414 137.024C140.221 140.71 132.25 142.625 124.167 142.61C121.363 142.611 118.564 142.383 115.797 141.929C115.576 141.892 115.356 141.855 115.139 141.815C104.785 139.974 95.2652 134.948 87.9066 127.44C87.753 127.283 87.5994 127.123 87.4424 126.962C80.3947 119.609 75.8077 110.248 74.3157 100.174C74.2856 99.954 74.2522 99.7337 74.2255 99.5133C72.864 89.2713 74.7729 78.8612 79.6799 69.7675C79.7835 69.5705 79.8937 69.3736 80.0006 69.1799C83.78 62.434 89.0709 56.6544 95.4586 52.2939C95.6423 52.1671 95.8261 52.0435 96.0098 51.92C102.182 47.8179 109.181 45.1224 116.511 44.0245C116.732 43.9945 116.952 43.9611 117.173 43.931C119.491 43.6141 121.827 43.4557 124.167 43.457C131.534 43.4449 138.815 45.034 145.507 48.1142C145.711 48.2076 145.911 48.3011 146.112 48.3979C152.37 51.3827 157.946 55.6265 162.488 60.8638C162.635 61.0307 162.782 61.201 162.922 61.3712C168.413 67.8482 172.126 75.6399 173.698 83.9827V83.9861C173.741 84.2031 173.778 84.4201 173.814 84.6404C174.296 87.4122 174.537 90.2202 174.536 93.0334Z" fill="white"/>
<path d="M129.14 89.2648C129.834 90.1235 130.284 91.1526 130.443 92.2445L154.712 87.6693C153.753 82.5126 151.468 77.6941 148.082 73.6878L129.14 89.2648Z" fill="#0EA5E9"/>
<path d="M155.474 88.0957C155.444 87.8754 155.404 87.6584 155.364 87.4414V87.4381C154.386 82.1703 152.054 77.2474 148.597 73.1527C148.453 72.9825 148.306 72.8122 148.159 72.6486C145.373 69.4753 141.982 66.8878 138.185 65.0369H138.182C137.982 64.9401 137.785 64.8433 137.581 64.7498C132.012 62.1937 125.828 61.282 119.758 62.1224C119.538 62.1491 119.317 62.1825 119.097 62.2192C114.698 62.9149 110.496 64.5279 106.762 66.9532C106.575 67.0734 106.388 67.1969 106.204 67.3237C102.104 70.1019 98.7146 73.8049 96.3103 78.1337C96.2035 78.3274 96.0966 78.5244 95.9897 78.7247C92.9866 84.4377 91.8578 90.9502 92.7631 97.34C92.7899 97.5637 92.8233 97.784 92.8634 98.001C93.8744 104.156 96.7261 109.862 101.043 114.366C101.194 114.526 101.347 114.687 101.508 114.844C106.052 119.422 111.883 122.51 118.225 123.697C118.445 123.741 118.666 123.777 118.886 123.814C125.645 124.935 132.585 123.871 138.696 120.776C138.894 120.676 139.087 120.572 139.284 120.466H139.288C145.065 117.376 149.74 112.569 152.665 106.708C152.765 106.507 152.862 106.307 152.955 106.107C155.595 100.495 156.473 94.2159 155.474 88.0957ZM152.348 105.83C152.254 106.033 152.157 106.234 152.057 106.431C149.191 112.158 144.619 116.856 138.97 119.878C138.773 119.982 138.576 120.085 138.379 120.185C132.401 123.214 125.611 124.254 119 123.153C118.779 123.12 118.556 123.083 118.338 123.04C112.141 121.878 106.443 118.861 101.999 114.39C101.838 114.233 101.685 114.072 101.531 113.912C97.3126 109.509 94.5221 103.935 93.5247 97.9209C93.488 97.7039 93.4546 97.4835 93.4245 97.2632C92.5394 91.0114 93.6423 84.6396 96.5776 79.0485C96.6778 78.8515 96.7847 78.6545 96.8949 78.4575C99.2522 74.216 102.575 70.5884 106.595 67.8679C106.778 67.7411 106.962 67.6175 107.149 67.5007C110.796 65.1364 114.898 63.5624 119.19 62.8802C119.407 62.8435 119.628 62.8101 119.852 62.7834C125.792 61.961 131.844 62.8542 137.294 65.3574C137.497 65.4475 137.698 65.5443 137.895 65.6412C141.606 67.4477 144.92 69.9738 147.645 73.0726C147.792 73.2395 147.939 73.4098 148.079 73.5801C151.466 77.5863 153.751 82.4049 154.709 87.5616C154.749 87.7786 154.786 87.9956 154.819 88.2193C155.789 94.2042 154.928 100.343 152.348 105.83Z" fill="#CCCCCC"/>
<path d="M121.846 88.0523L121.301 88.4396L106.595 67.8679L106.204 67.3237L95.4586 52.2939C95.6424 52.1671 95.8261 52.0435 96.0098 51.92L106.762 66.9532L107.149 67.5007L121.846 88.0523Z" fill="#CCCCCC"/>
<path d="M119.217 90.7131L118.893 91.3007L96.5776 79.0485L95.9898 78.7247L79.6799 69.7675C79.7835 69.5705 79.8937 69.3736 80.0006 69.1799L96.3104 78.1337L96.8949 78.4575L119.217 90.7131Z" fill="#CCCCCC"/>
<path d="M118.933 94.943L93.5247 97.9209L92.8634 98.001L74.3157 100.174C74.2856 99.954 74.2523 99.7337 74.2255 99.5133L92.7632 97.34L93.4245 97.2632L118.856 94.282L118.933 94.943Z" fill="#CCCCCC"/>
<path d="M120.573 97.1864L101.999 114.39L101.508 114.844L87.9067 127.44C87.753 127.283 87.5994 127.123 87.4424 126.962L101.043 114.366L101.531 113.912L120.119 96.6956L120.573 97.1864Z" fill="#CCCCCC"/>
<path d="M146.112 48.3979L138.185 65.0369H138.182L137.895 65.6412L127.059 88.3895L126.458 88.1024L137.294 65.3574L137.581 64.7498L145.507 48.1142C145.711 48.2076 145.911 48.3011 146.112 48.3979Z" fill="#CCCCCC"/>
<path d="M162.922 61.3712L148.597 73.1527L148.079 73.58L128.496 89.6848L128.072 89.1707L147.645 73.0726L148.159 72.6486L162.488 60.8638C162.635 61.0307 162.782 61.201 162.922 61.3712Z" fill="#CCCCCC"/>
<path d="M173.814 84.6404L155.474 88.0957L154.819 88.2193L129.722 92.9499L129.598 92.2955L154.709 87.5616L155.364 87.4414V87.438L173.698 83.9861C173.741 84.2031 173.778 84.4201 173.814 84.6404Z" fill="#CCCCCC"/>
<path d="M169.92 113.792C169.826 113.992 169.729 114.193 169.633 114.393L152.665 106.708L152.057 106.431L129.14 96.0513L129.418 95.4437L152.348 105.83L152.955 106.107L169.92 113.792Z" fill="#CCCCCC"/>
<path d="M148.005 136.717C147.808 136.821 147.611 136.924 147.414 137.024L138.696 120.776L138.379 120.185L126.465 97.9776L127.053 97.6638L138.97 119.878L139.284 120.466H139.288L148.005 136.717Z" fill="#CCCCCC"/>
<path d="M123.198 98.5151L119 123.153L118.886 123.814L115.797 141.929C115.576 141.892 115.356 141.855 115.139 141.815L118.225 123.697L118.338 123.04L122.537 98.4016L123.198 98.5151Z" fill="#CCCCCC"/>
<path d="M123.389 87.6718L122.727 87.7652L119.19 62.8803L119.097 62.2192L116.511 44.0245C116.732 43.9945 116.952 43.9611 117.173 43.9311L119.758 62.1224L119.852 62.7834L123.389 87.6718Z" fill="#CCCCCC"/>
<path d="M124.167 99.2796C127.672 99.2796 130.513 96.4831 130.513 93.0333C130.513 89.5836 127.672 86.7871 124.167 86.7871C120.662 86.7871 117.821 89.5836 117.821 93.0333C117.821 96.4831 120.662 99.2796 124.167 99.2796Z" fill="#3F3D56"/>
<path d="M254.715 267.649L249.965 271.624L232.363 255.203L239.373 249.335L254.715 267.649Z" fill="#A0616A"/>
<path d="M259.032 272.462L244.425 284.687L244.27 284.502C243.007 282.995 242.396 281.048 242.569 279.09C242.742 277.132 243.687 275.323 245.194 274.061L245.195 274.061L246.168 269.804L252.841 267.661L254.116 266.594L259.032 272.462Z" fill="#2F2E41"/>
<path d="M212.274 282.808L206.079 282.808L203.132 258.922L212.276 258.923L212.274 282.808Z" fill="#A0616A"/>
<path d="M212.493 289.268L193.441 289.268V289.027C193.441 287.061 194.222 285.176 195.613 283.786C197.004 282.396 198.89 281.615 200.856 281.615L204.337 278.976L210.83 281.615L212.493 281.615L212.493 289.268Z" fill="#2F2E41"/>
<path d="M227.77 168.507C229.267 170.377 228.519 176.734 228.519 176.734L228.886 216.328C235.246 221.563 240.118 243.301 240.118 243.301L246.191 254.469C245.443 256.713 240.588 265.487 239.091 265.113C238.397 264.94 229.753 256.972 224.005 245.156C217.364 231.506 213.553 213.757 213.553 213.757C213.553 213.757 214.301 264.617 214.301 266.861C214.301 269.105 204.199 267.983 201.954 267.983C199.709 267.983 188.154 176.36 188.154 176.36V171.125L190.024 168.507C190.024 168.507 226.274 166.637 227.77 168.507Z" fill="#2F2E41"/>
<path d="M147.341 83.9702L142.803 86.0866L147.86 85.0284C147.86 85.0284 151.575 85.1796 151.575 83.6679L157.625 80.3422C157.625 80.3422 162.767 83.0632 164.28 81.5515C165.792 80.0399 163.07 77.0165 163.07 77.0165C163.07 77.0165 164.892 76.0119 164.737 75.6072C164.582 75.2025 162.162 75.8072 162.162 75.8072C162.162 75.8072 156.415 72.4815 156.718 78.2259L150.668 82.2348C150.668 82.2348 147.643 82.1562 147.341 83.9702Z" fill="#3F3D56"/>
<path d="M229.849 181.454C221.909 185.392 212.461 186.583 203.561 185.537C195.889 184.634 194.293 176.066 187.172 173.026C189.422 166.564 189.449 157.985 189.069 155.577C188.419 151.466 188.298 122.813 190.681 119.829C193.807 115.915 198.578 113.823 198.361 108.82L199.03 109.506C198.185 107.285 199.821 104.742 201.974 103.737C204.127 102.732 206.615 102.86 208.988 103.008C210.986 103.133 212.984 103.258 214.982 103.383C214.72 104.198 214.657 105.063 214.797 105.908C214.938 106.752 215.277 107.551 215.788 108.238C219.329 107.262 223.065 109.858 224.647 113.168C226.229 116.481 226.19 120.304 226.119 123.974C226.037 128.22 229.186 158.04 225.377 159.927C227.341 160.422 230.118 170.895 228.442 169.76C229.218 170.303 229.03 175.374 229.849 181.454Z" fill="#0EA5E9"/>
<path d="M152.667 79.0351C153.523 78.7835 154.424 78.7227 155.306 78.8568C156.189 78.9909 157.031 79.3168 157.773 79.8114C158.516 80.306 159.141 80.9573 159.605 81.7195C160.068 82.4817 160.359 83.3362 160.456 84.2228L194.147 113.83L188.063 117.87L154.625 91.06C153.123 91.1248 151.651 90.637 150.486 89.689C149.32 88.7411 148.543 87.3988 148.302 85.9166C148.061 84.4343 148.372 82.9151 149.176 81.6468C149.981 80.3785 151.223 79.4493 152.667 79.0351Z" fill="#A0616A"/>
<path d="M188.948 104.279C188.211 104.321 170.799 91.6232 170.354 92.2121L169.184 98.5548L165.965 102.809L172.923 110.18L174.91 111.81L176.188 113.16C175.741 113.758 178.709 116.961 178.869 117.691C178.947 118.049 179.101 118.386 179.32 118.679C179.539 118.972 179.819 119.215 180.141 119.391L191.462 125.531C192.971 126.651 194.863 127.127 196.723 126.855C198.583 126.583 200.259 125.584 201.384 124.079C202.509 122.573 202.99 120.683 202.723 118.824C202.456 116.964 201.461 115.286 199.958 114.157L198.288 112.469L195.73 109.878L190.944 105.033C190.685 104.77 190.373 104.567 190.029 104.437C189.684 104.307 189.315 104.253 188.948 104.279Z" fill="#0EA5E9"/>
<path d="M207.73 99.6545C214.513 99.6545 220.011 94.1588 220.011 87.3795C220.011 80.6003 214.513 75.1046 207.73 75.1046C200.948 75.1046 195.449 80.6003 195.449 87.3795C195.449 94.1588 200.948 99.6545 207.73 99.6545Z" fill="#A0616A"/>
<path d="M222.38 83.4921C221.697 80.7834 219.15 78.4203 216.369 78.6943C216.712 76.6075 215.323 74.5062 213.449 73.5227C211.576 72.5393 209.339 72.4971 207.251 72.8396C206.038 73.0594 204.837 73.3398 203.652 73.6798C202.648 73.9501 197.936 72.3378 196.938 72.6321C196.084 72.8838 194.03 75.9405 193.382 76.5503C192.734 77.1601 192.391 78.1863 192.823 78.9636C193.251 79.731 194.229 79.981 195.104 80.0529C195.98 80.1247 196.921 80.1121 197.648 80.6055C198.583 81.2397 198.847 82.5042 198.809 83.6323C198.771 84.7605 198.512 85.8983 198.723 87.0073C198.934 88.1163 199.832 89.224 200.959 89.1479C201.802 88.2589 203.343 88.316 204.311 89.0681C204.773 89.4724 205.143 89.9718 205.395 90.5323C205.646 91.0927 205.773 91.7008 205.768 92.315C205.748 93.5417 205.557 94.7597 205.201 95.9338C204.998 96.7444 204.846 97.727 205.446 98.3083C205.8 98.5901 206.226 98.7677 206.675 98.8211C208.448 99.1975 215.102 98.6869 216.876 99.0634L216.738 98.7927C218.023 96.3118 219.727 94.0654 220.99 91.5732C222.252 89.081 223.063 86.2008 222.38 83.4921Z" fill="#2F2E41"/>
<path d="M241.231 184.871C240.363 184.663 239.552 184.268 238.853 183.713C238.155 183.157 237.587 182.456 237.189 181.657C236.791 180.859 236.573 179.983 236.55 179.091C236.528 178.2 236.701 177.314 237.058 176.496L222.579 134.057L229.867 133.58L245.521 173.467C246.855 174.158 247.89 175.313 248.428 176.715C248.967 178.117 248.972 179.668 248.444 181.073C247.915 182.479 246.889 183.642 245.559 184.342C244.23 185.042 242.69 185.23 241.231 184.871Z" fill="#A0616A"/>
<path d="M219.226 139.606C219.887 139.936 228.666 159.611 229.346 159.322L233.519 154.402L238.428 152.314L236.064 142.459L235.152 140.057L234.716 138.25C235.401 137.954 234.422 133.7 234.647 132.986C234.757 132.637 234.792 132.268 234.747 131.905C234.703 131.541 234.581 131.192 234.39 130.879L227.628 119.922C226.877 118.2 225.472 116.846 223.724 116.156C221.975 115.467 220.024 115.499 218.299 116.246C216.573 116.992 215.215 118.392 214.52 120.138C213.826 121.884 213.853 123.834 214.595 125.561L215.203 127.855L216.132 131.375L217.871 137.959C217.964 138.315 218.134 138.647 218.368 138.931C218.602 139.215 218.895 139.446 219.226 139.606Z" fill="#0EA5E9"/>
<path d="M275.251 282.245L271.83 276.75L271.147 279.89C271.027 280.44 270.907 280.999 270.796 281.553C269.824 280.724 268.79 279.957 267.779 279.221C264.673 276.968 261.568 274.712 258.465 272.453L259.437 278.085C260.036 281.554 260.661 285.093 262.143 288.264C262.308 288.623 262.485 288.978 262.676 289.324H277.115C277.231 289.002 277.311 288.669 277.354 288.33C277.358 288.308 277.359 288.286 277.359 288.264C277.585 286.113 276.396 284.086 275.251 282.245Z" fill="#F0F0F0"/>
<path d="M287.472 289.864L165.115 290C164.975 290 164.84 289.944 164.741 289.845C164.642 289.746 164.587 289.612 164.587 289.472C164.587 289.332 164.642 289.197 164.741 289.098C164.84 288.999 164.975 288.944 165.115 288.944L287.472 288.807C287.541 288.807 287.61 288.821 287.674 288.847C287.739 288.874 287.797 288.913 287.846 288.962C287.895 289.011 287.935 289.069 287.961 289.133C287.988 289.197 288.002 289.266 288.002 289.336C288.002 289.405 287.988 289.474 287.961 289.538C287.935 289.602 287.895 289.66 287.846 289.71C287.797 289.759 287.739 289.797 287.674 289.824C287.61 289.85 287.541 289.864 287.472 289.864Z" fill="#CACACA"/>
<path d="M110.664 197.77L107.243 192.275L106.56 195.415C106.44 195.965 106.32 196.524 106.209 197.078C105.238 196.249 104.204 195.481 103.192 194.745C100.086 192.492 96.9815 190.236 93.8783 187.977L94.8501 193.61C95.4491 197.078 96.0748 200.617 97.5568 203.788C97.721 204.147 97.8985 204.502 98.0894 204.848H112.528C112.644 204.527 112.725 204.194 112.768 203.855C112.771 203.833 112.773 203.81 112.772 203.788C112.999 201.637 111.809 199.61 110.664 197.77Z" fill="#F0F0F0"/>
<path d="M122.885 205.388L0.528326 205.524C0.388468 205.524 0.254487 205.468 0.155735 205.369C0.0569835 205.27 0.00152588 205.136 0.00152588 204.996C0.00152588 204.857 0.0569835 204.722 0.155735 204.623C0.254487 204.524 0.388468 204.469 0.528326 204.468L122.885 204.332C122.955 204.332 123.024 204.345 123.088 204.372C123.152 204.398 123.21 204.437 123.26 204.486C123.309 204.535 123.348 204.593 123.375 204.658C123.401 204.722 123.415 204.791 123.415 204.86C123.415 204.93 123.401 204.998 123.375 205.062C123.348 205.127 123.309 205.185 123.26 205.234C123.21 205.283 123.152 205.322 123.088 205.348C123.024 205.375 122.955 205.388 122.885 205.388Z" fill="#CACACA"/>
<path d="M66.2945 103.427C65.7183 103.24 65.1902 102.929 64.7473 102.515C64.3045 102.102 63.9576 101.597 63.7313 101.035C63.5049 100.474 63.4045 99.8691 63.4371 99.2644C63.4698 98.6598 63.6346 98.0696 63.9201 97.5355L52.7301 65.8073L53.8505 55.2514L58.4159 52.2979L63.0242 67.0536L69.81 95.9394C70.6758 96.4783 71.3139 97.3159 71.6031 98.2935C71.8924 99.2711 71.8129 100.321 71.3795 101.244C70.9462 102.167 70.1892 102.899 69.252 103.301C68.3148 103.703 67.2625 103.748 66.2945 103.427Z" fill="#FFB6B6"/>
<path d="M46.7006 44.1488L57.2838 40.0543L63.4285 60.527L49.2453 65.0192L46.7006 44.1488Z" fill="#3F3D56"/>
</g>
<defs>
<clipPath id="clip0_1_76">
<rect width="288" height="290" fill="white"/>
</clipPath>
</defs>
</svg>
