<svg width="398" height="321" viewBox="0 0 398 321" fill="none" xmlns="http://www.w3.org/2000/svg">
<g clip-path="url(#clip0_1_26)">
<path d="M112.034 213.455C136.972 213.455 157.188 193.225 157.188 168.271C157.188 143.317 136.972 123.088 112.034 123.088C87.0958 123.088 66.8795 143.317 66.8795 168.271C66.8795 193.225 87.0958 213.455 112.034 213.455Z" fill="#E6E6E6"/>
<path d="M99.834 234.251L110.941 241.138V194.583L98.4914 186.863C97.4621 186.225 96.7099 185.223 96.384 184.056C97.5734 183.829 98.8047 184.057 99.834 184.695L110.941 191.582V173.53C110.941 170.037 111.369 166.558 112.216 163.17C113.062 166.558 113.49 170.037 113.49 173.53V202.995L129.877 192.834C131.185 192.023 132.699 191.605 134.238 191.63C133.576 193.021 132.528 194.191 131.22 195.003L113.49 205.996V316.095H110.941V244.139L98.4913 236.419C97.4621 235.781 96.7099 234.779 96.384 233.612C97.5734 233.385 98.8047 233.613 99.834 234.251Z" fill="#CCCCCC"/>
<path d="M45.1543 217.291C70.0923 217.291 90.3086 197.062 90.3086 172.108C90.3086 147.154 70.0923 126.925 45.1543 126.925C20.2163 126.925 0 147.154 0 172.108C0 197.062 20.2163 217.291 45.1543 217.291Z" fill="#E6E6E6"/>
<path d="M57.3541 238.087L46.2467 244.974V198.419L58.6967 190.7C59.726 190.061 60.4782 189.059 60.8041 187.892C59.6147 187.665 58.3833 187.893 57.354 188.531L46.2467 195.419V177.366C46.2467 173.874 45.8186 170.394 44.9722 167.006C44.1257 170.394 43.6976 173.874 43.6976 177.366V206.831L27.3113 196.671C26.0028 195.859 24.4889 195.441 22.9498 195.467C23.6123 196.857 24.6602 198.028 25.9686 198.839L43.6977 209.832V316.338H46.2467V247.975L58.6967 240.255C59.726 239.617 60.4782 238.615 60.8041 237.448C59.6147 237.221 58.3834 237.449 57.3541 238.087Z" fill="#CCCCCC"/>
<path d="M77.9551 155.588C120.892 155.588 155.699 120.758 155.699 77.7939C155.699 34.8295 120.892 0 77.9551 0C35.0181 0 0.210785 34.8295 0.210785 77.7939C0.210785 120.758 35.0181 155.588 77.9551 155.588Z" fill="#E6E6E6"/>
<path d="M98.96 191.394L79.836 203.252V123.096L101.272 109.804C103.044 108.706 104.339 106.981 104.9 104.971C102.852 104.58 100.732 104.973 98.96 106.071L79.836 117.93V86.8474C79.836 80.8344 79.099 74.8442 77.6416 69.0107C76.1842 74.8442 75.4472 80.8344 75.4472 86.8474V137.579L47.2339 120.085C44.9811 118.688 42.3745 117.969 39.7246 118.012C40.8652 120.406 42.6694 122.421 44.9222 123.818L75.4472 142.746V316.508H79.836V208.418L101.272 195.127C103.044 194.028 104.339 192.303 104.9 190.294C102.852 189.902 100.732 190.295 98.96 191.394Z" fill="#CCCCCC"/>
<path d="M398 316.095H31.0068V317.024H398V316.095Z" fill="#3F3D56"/>
<path d="M303.485 140.352L285.271 150.875L295.787 169.101L314.001 158.579L303.485 140.352Z" fill="#FF6584"/>
<path d="M303.716 172.9L292.735 153.869L311.755 142.881L322.735 161.913L303.716 172.9ZM294.005 154.209L304.056 171.63L321.466 161.572L311.414 144.151L294.005 154.209Z" fill="#2F2E41"/>
<path d="M286.677 224.041C291.551 224.041 295.503 220.086 295.503 215.209C295.503 210.331 291.551 206.377 286.677 206.377C281.802 206.377 277.85 210.331 277.85 215.209C277.85 220.086 281.802 224.041 286.677 224.041Z" fill="#D0CDE1"/>
<path d="M293.18 224.506C291.343 224.506 289.546 223.96 288.019 222.939C286.491 221.917 285.3 220.465 284.597 218.766C283.893 217.068 283.709 215.198 284.068 213.395C284.426 211.591 285.311 209.935 286.611 208.635C287.91 207.335 289.565 206.449 291.368 206.09C293.17 205.732 295.038 205.916 296.736 206.619C298.434 207.323 299.885 208.515 300.906 210.044C301.926 211.572 302.471 213.37 302.471 215.209C302.471 217.674 301.492 220.039 299.75 221.783C298.008 223.526 295.644 224.506 293.18 224.506ZM293.18 206.841C291.527 206.841 289.91 207.332 288.535 208.252C287.16 209.171 286.088 210.478 285.455 212.007C284.822 213.536 284.656 215.218 284.979 216.841C285.302 218.464 286.098 219.955 287.268 221.125C288.437 222.295 289.927 223.092 291.549 223.415C293.171 223.738 294.852 223.572 296.38 222.939C297.908 222.306 299.214 221.233 300.133 219.857C301.052 218.481 301.542 216.864 301.542 215.209C301.542 212.99 300.661 210.861 299.093 209.292C297.525 207.723 295.398 206.841 293.18 206.841Z" fill="#2F2E41"/>
<path d="M342.358 318.209H256.881C255.835 318.208 254.831 317.791 254.091 317.05C253.35 316.31 252.934 315.305 252.933 314.258V234.769C252.934 233.722 253.35 232.718 254.091 231.977C254.831 231.236 255.835 230.819 256.881 230.818H342.358C343.405 230.819 344.409 231.236 345.149 231.977C345.889 232.718 346.306 233.722 346.307 234.769V314.258C346.306 315.305 345.889 316.31 345.149 317.05C344.409 317.791 343.405 318.208 342.358 318.209Z" fill="#0EA5E9"/>
<path d="M305.658 321H293.58C292.533 320.999 291.53 320.582 290.789 319.841C290.049 319.101 289.633 318.096 289.631 317.049V232.408C289.633 231.36 290.049 230.356 290.789 229.615C291.53 228.875 292.533 228.458 293.58 228.457H305.658C306.705 228.458 307.709 228.875 308.449 229.615C309.189 230.356 309.606 231.36 309.607 232.408V317.049C309.606 318.096 309.189 319.101 308.449 319.841C307.709 320.582 306.705 320.999 305.658 321Z" fill="#3F3D56"/>
<path d="M365.068 222.95C364.569 231.15 353.499 237.147 353.499 237.147C353.499 237.147 343.239 229.849 343.739 221.649C344.238 213.449 355.308 207.452 355.308 207.452C355.308 207.452 365.568 214.75 365.068 222.95Z" fill="#3F3D56"/>
<path d="M365.57 248.534C357.373 248.06 351.346 237.002 351.346 237.002C351.346 237.002 358.607 226.713 366.803 227.187C374.999 227.661 381.027 238.719 381.027 238.719C381.027 238.719 373.766 249.008 365.57 248.534Z" fill="#3F3D56"/>
<path opacity="0.1" d="M346.075 240.543V270.888L315.911 231.051H338.888L346.075 240.543Z" fill="black"/>
<path d="M371.682 292.487C371.071 292.488 370.469 292.348 369.922 292.076C369.375 291.805 368.898 291.41 368.53 290.924L305.688 207.93C305.375 207.516 305.146 207.045 305.015 206.543C304.884 206.041 304.853 205.518 304.924 205.004C304.995 204.49 305.166 203.995 305.428 203.547C305.69 203.099 306.038 202.708 306.451 202.394L315.708 195.376C316.121 195.063 316.592 194.834 317.094 194.703C317.595 194.571 318.118 194.54 318.632 194.611C319.145 194.682 319.64 194.854 320.088 195.116C320.535 195.378 320.926 195.726 321.239 196.14L384.081 279.133C384.394 279.547 384.623 280.018 384.754 280.52C384.885 281.022 384.916 281.545 384.845 282.059C384.775 282.573 384.603 283.068 384.341 283.516C384.079 283.963 383.732 284.355 383.318 284.669L374.061 291.687C373.377 292.207 372.541 292.488 371.682 292.487Z" fill="#0EA5E9"/>
<path d="M346.528 227.997L330.606 240.068L342.669 256L358.591 243.929L346.528 227.997Z" fill="#3F3D56"/>
<path d="M264.624 167.285L259.18 187.614L279.496 193.061L284.939 172.732L264.624 167.285Z" fill="#D0CDE1"/>
<path d="M270.878 196.1L249.665 190.412L255.349 169.186L276.561 174.873L270.878 196.1ZM250.803 189.755L270.221 194.962L275.424 175.531L256.006 170.324L250.803 189.755Z" fill="#2F2E41"/>
<path d="M181.522 245.438C182.08 244.903 182.514 244.252 182.794 243.531C183.073 242.809 183.191 242.036 183.14 241.264C183.088 240.492 182.868 239.741 182.495 239.064C182.122 238.386 181.605 237.799 180.981 237.343L172.45 168.532L161.428 171.811L173.327 238.776C172.631 239.877 172.363 241.194 172.573 242.479C172.783 243.765 173.457 244.928 174.467 245.749C175.477 246.57 176.753 246.992 178.054 246.935C179.354 246.877 180.588 246.345 181.522 245.438Z" fill="#FFB8B8"/>
<path d="M191.739 311.209H198.185L201.254 286.328H191.739V311.209Z" fill="#FFB8B8"/>
<path d="M210.618 317.199H190.357V309.366H203.506C205.392 309.366 207.201 310.115 208.535 311.45C209.869 312.785 210.618 314.595 210.618 316.482V317.199Z" fill="#2F2E41"/>
<path d="M147.159 301.161L153.202 303.41L164.746 281.161L155.828 277.841L147.159 301.161Z" fill="#FFB8B8"/>
<path d="M162.767 313.361L143.778 306.293L146.507 298.952L158.831 303.539C160.598 304.197 162.033 305.531 162.818 307.247C163.603 308.963 163.674 310.921 163.017 312.69L162.767 313.361Z" fill="#2F2E41"/>
<path d="M180.174 150.669C186.906 150.669 192.363 145.208 192.363 138.472C192.363 131.736 186.906 126.275 180.174 126.275C173.442 126.275 167.985 131.736 167.985 138.472C167.985 145.208 173.442 150.669 180.174 150.669Z" fill="#FFB8B8"/>
<path d="M161.109 169.775C160.727 158.541 172.527 150.747 182.455 156.007C183.72 156.677 196.78 167.781 197.273 174.676C197.765 181.571 198.749 192.899 198.749 192.899L212.531 295.836L182.999 294.358L186.565 264.33L167.369 294.866L144.114 287.463L172.662 205.212C172.662 205.212 161.687 186.801 161.109 169.775Z" fill="#2F2E41"/>
<path d="M161.341 173.686L163.238 198.355C163.257 198.613 163.374 198.853 163.563 199.029C163.753 199.204 164.001 199.302 164.259 199.302H172.603C172.772 199.302 172.938 199.26 173.087 199.181C173.235 199.101 173.362 198.986 173.456 198.846C173.549 198.705 173.607 198.544 173.623 198.376C173.64 198.208 173.615 198.039 173.55 197.883L163.309 173.214C163.216 172.989 163.045 172.805 162.828 172.694C162.611 172.583 162.361 172.554 162.124 172.61C161.887 172.667 161.678 172.807 161.535 173.004C161.391 173.201 161.323 173.443 161.341 173.686Z" fill="#2F2E41"/>
<path d="M204.192 241.164C204.683 240.567 205.038 239.869 205.232 239.12C205.425 238.371 205.452 237.589 205.31 236.829C205.169 236.068 204.862 235.348 204.413 234.719C203.963 234.09 203.381 233.567 202.707 233.188L186.187 165.848L175.624 170.396L195.274 235.507C194.711 236.682 194.599 238.022 194.958 239.273C195.317 240.525 196.123 241.602 197.222 242.299C198.321 242.996 199.638 243.266 200.922 243.056C202.207 242.847 203.37 242.174 204.192 241.164Z" fill="#FFB8B8"/>
<path d="M177.092 159.9C177.092 159.9 173.647 166.796 177.092 179.109C180.538 191.422 182.999 201.764 182.999 201.764C182.999 201.764 190.874 196.839 194.319 198.317C197.765 199.794 188.869 165.494 188.869 165.494C188.869 165.494 183.491 153.99 177.092 159.9Z" fill="#2F2E41"/>
<path d="M183.034 140.375C183.199 137.844 186.39 137.757 188.924 137.733C191.459 137.709 194.489 137.8 195.923 135.709C196.871 134.327 196.69 132.408 195.907 130.927C195.124 129.445 193.836 128.305 192.569 127.209C189.298 124.379 185.927 121.571 181.999 119.759C178.072 117.948 173.47 117.216 169.397 118.67C164.394 120.456 157.63 129.652 157.046 134.936C156.462 140.219 158.573 145.605 162.129 149.553C165.686 153.501 173.828 151.908 178.951 153.313C175.836 148.901 177.889 140.886 182.879 138.826L183.034 140.375Z" fill="#2F2E41"/>
</g>
<defs>
<clipPath id="clip0_1_26">
<rect width="398" height="321" fill="white"/>
</clipPath>
</defs>
</svg>
