<svg width="555" height="299" viewBox="0 0 555 299" fill="none" xmlns="http://www.w3.org/2000/svg">
<g clip-path="url(#clip0_1_122)">
<path d="M35.154 249.716L33.4229 258.384C33.2924 259.047 33.1561 259.722 33.0079 260.39C31.5609 260.091 30.0607 260.175 28.6562 260.633C29.7705 262.222 30.7691 263.889 31.6443 265.621C30.5534 268.976 28.9527 272.077 26.2729 274.32C24.4831 275.784 22.3455 276.764 20.0661 277.164C17.7867 277.564 15.4425 277.371 13.2595 276.604L13.3366 276.261C10.4552 270.681 12.0204 263.645 15.6013 258.491C17.4277 255.948 19.5917 253.665 22.0339 251.704C24.4528 249.692 27.0673 247.887 29.6582 246.106C30.2401 245.707 30.928 245.489 31.6342 245.482C32.3404 245.475 33.0327 245.678 33.6226 246.066C34.2125 246.453 34.6733 247.007 34.9461 247.657C35.2189 248.308 35.2913 249.024 35.154 249.716Z" fill="#E4E4E4"/>
<path d="M13.876 297.462C13.1474 292.164 12.398 286.799 12.909 281.445C13.3632 276.69 14.8163 272.045 17.7759 268.237C19.3467 266.219 21.2581 264.49 23.4241 263.128C23.9891 262.773 24.5085 263.666 23.9464 264.02C20.1988 266.384 17.3001 269.875 15.6682 273.989C13.8659 278.564 13.5766 283.552 13.8896 288.412C14.0776 291.351 14.4754 294.27 14.8768 297.187C14.9091 297.319 14.8896 297.458 14.8224 297.577C14.7552 297.695 14.6452 297.783 14.5151 297.823C14.3827 297.858 14.2416 297.84 14.1224 297.773C14.0032 297.705 13.9155 297.593 13.8784 297.462L13.876 297.462Z" fill="#F2F2F2"/>
<path d="M20.1292 31.7369C45.5259 31.2962 70.9254 31.2328 96.3276 31.547C121.726 31.863 147.116 32.5581 172.498 33.6323C186.74 34.2352 200.977 34.9574 215.208 35.799C216.351 35.8665 216.348 34.0911 215.208 34.0238C189.852 32.5262 164.477 31.4056 139.084 30.6621C113.694 29.9205 88.2973 29.5581 62.8931 29.5749C48.6376 29.5844 34.383 29.7133 20.1292 29.9617C18.9859 29.9816 18.9823 31.7568 20.1292 31.7369Z" fill="#E6E6E6"/>
<path d="M197.121 20.606L208.226 19.781C209.36 19.6967 209.369 17.9209 208.226 18.0058L197.121 18.8308C195.986 18.915 195.977 20.6909 197.121 20.606Z" fill="#E6E6E6"/>
<path d="M197.121 31.2571L208.226 30.4322C209.36 30.3479 209.369 28.5721 208.226 28.657L197.121 29.482C195.986 29.5662 195.977 31.3421 197.121 31.2571Z" fill="#E6E6E6"/>
<path d="M196.285 26.393L212.074 27.8247C213.214 27.928 213.207 26.1522 212.074 26.0495L196.285 24.6178C195.146 24.5145 195.153 26.2903 196.285 26.393Z" fill="#E6E6E6"/>
<path d="M26.7014 18.2186C25.9291 18.2139 25.1725 18.4361 24.5259 18.8576C23.8793 19.2791 23.3714 19.8812 23.0653 20.5888C22.7229 21.2815 22.6172 22.067 22.7643 22.8252C22.9115 23.5835 23.3035 24.2728 23.8802 24.7877C24.4225 25.2481 25.0728 25.5638 25.7704 25.7053C26.4681 25.8467 27.1903 25.8093 27.8695 25.5966C28.5641 25.3544 29.1665 24.9033 29.5937 24.3054C30.0209 23.7074 30.2518 22.992 30.2548 22.2576C30.2858 21.4429 30.0647 20.6383 29.6214 19.9534C29.1782 19.2685 28.5344 18.7365 27.7775 18.4297C27.5501 18.3681 27.3075 18.3986 27.1026 18.5147C26.8977 18.6309 26.747 18.8231 26.6836 19.0496C26.6275 19.2764 26.6606 19.516 26.7761 19.7191C26.8917 19.9222 27.0808 20.0734 27.3047 20.1415C27.4597 20.2013 27.1631 20.0654 27.3078 20.1441C27.3673 20.1765 27.4279 20.2057 27.4864 20.2403C27.536 20.2696 27.5836 20.3018 27.6319 20.3333C27.7979 20.4414 27.5509 20.2539 27.657 20.3511C27.749 20.4354 27.8402 20.5176 27.9238 20.6107C27.9554 20.6458 28.0793 20.7436 27.983 20.6753C27.9094 20.623 27.9546 20.6353 27.983 20.6773C28.0046 20.7092 28.0273 20.7402 28.0486 20.7722C28.118 20.8769 28.181 20.9857 28.2374 21.0979C28.2504 21.1238 28.2624 21.1504 28.2757 21.1762C28.3006 21.2247 28.3367 21.2373 28.2781 21.1767C28.2222 21.1188 28.2578 21.1227 28.2778 21.1785C28.291 21.2151 28.3053 21.2513 28.3181 21.2881C28.3598 21.4078 28.3948 21.5298 28.423 21.6534C28.436 21.7105 28.4465 21.768 28.4577 21.8255C28.4974 22.0293 28.4519 21.6987 28.4615 21.8501C28.4695 21.9766 28.4789 22.1016 28.4767 22.2285C28.4757 22.2866 28.4731 22.3446 28.4691 22.4026C28.467 22.4315 28.4638 22.4603 28.4619 22.4892C28.4527 22.6285 28.4524 22.4383 28.4719 22.4253C28.4313 22.5435 28.4043 22.666 28.3915 22.7904C28.3756 22.8456 28.3567 22.8996 28.339 22.9541C28.2771 23.1446 28.3971 22.8503 28.3311 22.9805C28.2769 23.0923 28.2162 23.2009 28.1494 23.3058C28.1205 23.3497 28.0112 23.4489 28.1006 23.3799C28.1975 23.3049 28.0497 23.4339 28.0182 23.4671C27.9777 23.5098 27.9356 23.5509 27.8921 23.5906C27.8642 23.6178 27.8347 23.6433 27.8039 23.6671C27.7982 23.6643 27.9524 23.5643 27.8693 23.6172C27.7636 23.6845 27.6636 23.7565 27.5522 23.815C27.5393 23.8218 27.3969 23.8877 27.3975 23.89C27.3914 23.866 27.5805 23.8235 27.4507 23.8654C27.4234 23.8742 27.3966 23.8848 27.3695 23.894C27.2513 23.9337 27.1306 23.9658 27.0082 23.99C26.9802 23.9956 26.9506 23.9984 26.923 24.0055C26.8311 24.0292 27.0108 23.9916 27.0162 23.9947C26.9483 23.9918 26.8802 23.9978 26.8139 24.0126C26.6877 24.0198 26.5612 24.0198 26.435 24.0125C26.4058 24.0109 26.3767 24.008 26.3475 24.0063C26.2797 24.0024 26.23 23.9536 26.3202 24.0065C26.3898 24.0474 26.384 24.0176 26.3223 24.0062C26.2935 24.0009 26.2646 23.9964 26.2357 23.991C26.1108 23.9677 25.9873 23.9375 25.8658 23.9006C25.8004 23.8807 25.7363 23.8575 25.6718 23.835C25.6436 23.8269 25.6163 23.8164 25.5899 23.8036C25.5896 23.7963 25.7563 23.8831 25.6682 23.8357C25.5572 23.776 25.4423 23.7259 25.3338 23.6606C25.2759 23.6257 25.2203 23.5879 25.1641 23.5505C25.1393 23.5357 25.1158 23.5188 25.0937 23.5002C25.0955 23.4927 25.2315 23.6185 25.1601 23.5506C25.0699 23.4647 24.9733 23.3878 24.8877 23.2964C24.8682 23.2755 24.8497 23.2536 24.8302 23.2326L24.8113 23.2111C24.7631 23.1523 24.7622 23.1526 24.8086 23.2119C24.8558 23.2258 24.8536 23.2774 24.8089 23.2104C24.793 23.1865 24.776 23.1633 24.7601 23.1393C24.6879 23.0366 24.6263 22.9269 24.5763 22.8117C24.5806 22.8084 24.6533 23.0253 24.5977 22.8616C24.5872 22.8307 24.5754 22.8002 24.5651 22.7692C24.5447 22.7077 24.5267 22.6456 24.5112 22.5827C24.4958 22.5204 24.4879 22.4562 24.4724 22.3942C24.4463 22.2896 24.4877 22.4766 24.483 22.472C24.4681 22.4574 24.4744 22.3667 24.4733 22.345C24.4662 22.2057 24.4821 22.0705 24.4846 21.9321C24.4865 21.8249 24.4757 22.0157 24.4735 22.0101C24.474 21.978 24.4797 21.9461 24.4904 21.9158C24.5065 21.8428 24.5214 21.7699 24.5411 21.6977C24.5637 21.615 24.5897 21.5333 24.6191 21.4527C24.6301 21.4225 24.6434 21.3928 24.6537 21.3624C24.6911 21.2509 24.5796 21.497 24.6411 21.3965C24.7257 21.2582 24.7887 21.1085 24.8785 20.972C24.8998 20.9396 25.0292 20.7593 24.9605 20.8503C24.8921 20.941 25.0308 20.7691 25.0571 20.7399C25.1662 20.6187 25.2945 20.5192 25.4074 20.4031C25.4742 20.3344 25.3607 20.4369 25.354 20.4417C25.389 20.4168 25.4233 20.3909 25.4587 20.3665C25.5204 20.324 25.5837 20.2839 25.6484 20.246C25.7214 20.2033 25.8039 20.1716 25.8746 20.1264C25.9581 20.073 25.8107 20.1498 25.8081 20.1514C25.8462 20.1325 25.8861 20.1174 25.9272 20.1061C25.9961 20.0817 26.2956 19.9528 26.3584 19.9931C26.3555 19.9913 26.131 20.0111 26.3125 19.9995C26.3554 19.9967 26.3981 19.9926 26.4411 19.9908C26.528 19.9872 26.6146 19.9894 26.7014 19.9939C26.9368 19.9923 27.1621 19.8983 27.3286 19.7322C27.495 19.5661 27.5892 19.3412 27.5907 19.1063C27.5857 18.8724 27.4904 18.6496 27.3247 18.4842C27.159 18.3188 26.9357 18.2237 26.7014 18.2186Z" fill="#E6E6E6"/>
<path d="M39.1516 18.2186C38.3793 18.2139 37.6227 18.4361 36.9761 18.8576C36.3295 19.2791 35.8215 19.8812 35.5154 20.5888C35.173 21.2815 35.0673 22.067 35.2145 22.8252C35.3617 23.5835 35.7536 24.2728 36.3304 24.7877C36.8726 25.2481 37.523 25.5638 38.2206 25.7053C38.9183 25.8467 39.6404 25.8093 40.3197 25.5966C41.0143 25.3544 41.6167 24.9033 42.0439 24.3054C42.471 23.7074 42.702 22.992 42.705 22.2576C42.736 21.4429 42.5149 20.6383 42.0716 19.9534C41.6284 19.2685 40.9845 18.7365 40.2277 18.4297C40.0003 18.3681 39.7577 18.3986 39.5528 18.5147C39.3478 18.6309 39.1972 18.8231 39.1337 19.0496C39.0776 19.2764 39.1108 19.516 39.2263 19.7191C39.3419 19.9222 39.531 20.0734 39.7549 20.1415C39.9098 20.2013 39.6133 20.0654 39.758 20.1441C39.8175 20.1765 39.8781 20.2057 39.9365 20.2403C39.9862 20.2696 40.0338 20.3018 40.0821 20.3333C40.2481 20.4414 40.001 20.2539 40.1072 20.3511C40.1992 20.4354 40.2903 20.5176 40.374 20.6107C40.4056 20.6458 40.5295 20.7436 40.4332 20.6753C40.3596 20.623 40.4048 20.6353 40.4332 20.6773C40.4547 20.7092 40.4775 20.7402 40.4988 20.7722C40.5681 20.8769 40.6312 20.9857 40.6875 21.0979C40.7006 21.1238 40.7126 21.1504 40.7259 21.1762C40.7508 21.2247 40.7869 21.2373 40.7283 21.1767C40.6724 21.1188 40.708 21.1227 40.728 21.1785C40.7412 21.2151 40.7555 21.2513 40.7683 21.2881C40.81 21.4078 40.845 21.5298 40.8732 21.6534C40.8862 21.7105 40.8967 21.768 40.9079 21.8255C40.9476 22.0293 40.9021 21.6987 40.9117 21.8501C40.9197 21.9766 40.9291 22.1016 40.9269 22.2285C40.9258 22.2866 40.9233 22.3446 40.9193 22.4026C40.9172 22.4315 40.914 22.4603 40.9121 22.4892C40.9029 22.6285 40.9026 22.4383 40.9221 22.4253C40.8814 22.5435 40.8545 22.666 40.8417 22.7904C40.8258 22.8456 40.8069 22.8996 40.7892 22.9541C40.7273 23.1446 40.8473 22.8503 40.7813 22.9805C40.727 23.0923 40.6664 23.2009 40.5996 23.3058C40.5706 23.3497 40.4614 23.4489 40.5507 23.3799C40.6477 23.3049 40.4999 23.4339 40.4684 23.4671C40.4279 23.5098 40.3858 23.5509 40.3422 23.5906C40.3144 23.6178 40.2849 23.6433 40.254 23.6671C40.2484 23.6643 40.4026 23.5643 40.3195 23.6172C40.2138 23.6845 40.1138 23.7565 40.0024 23.815C39.9894 23.8218 39.8471 23.8877 39.8477 23.89C39.8415 23.866 40.0307 23.8235 39.9008 23.8654C39.8736 23.8742 39.8468 23.8848 39.8197 23.894C39.7014 23.9337 39.5808 23.9658 39.4584 23.99C39.4304 23.9956 39.4008 23.9984 39.3732 24.0055C39.2812 24.0292 39.461 23.9916 39.4664 23.9947C39.3985 23.9918 39.3304 23.9978 39.264 24.0126C39.1379 24.0198 39.0114 24.0198 38.8852 24.0125C38.856 24.0109 38.8269 24.008 38.7977 24.0063C38.7299 24.0024 38.6802 23.9536 38.7704 24.0065C38.8399 24.0474 38.8342 24.0176 38.7725 24.0062C38.7437 24.0009 38.7147 23.9964 38.6859 23.991C38.561 23.9677 38.4375 23.9375 38.316 23.9006C38.2506 23.8807 38.1865 23.8575 38.1219 23.835C38.0938 23.8269 38.0665 23.8164 38.0401 23.8036C38.0397 23.7963 38.2064 23.8831 38.1184 23.8357C38.0073 23.776 37.8925 23.7259 37.784 23.6606C37.7261 23.6257 37.6705 23.5879 37.6142 23.5505C37.5895 23.5357 37.5659 23.5188 37.5439 23.5002C37.5457 23.4927 37.6817 23.6185 37.6103 23.5506C37.52 23.4647 37.4234 23.3878 37.3379 23.2964C37.3184 23.2755 37.2999 23.2536 37.2804 23.2326L37.2615 23.2111C37.2133 23.1523 37.2124 23.1526 37.2588 23.2119C37.3059 23.2258 37.3038 23.2774 37.2591 23.2104C37.2431 23.1865 37.2262 23.1633 37.2103 23.1393C37.1381 23.0366 37.0765 22.9269 37.0265 22.8117C37.0308 22.8084 37.1035 23.0253 37.0479 22.8616C37.0374 22.8307 37.0256 22.8002 37.0153 22.7692C36.9949 22.7077 36.9769 22.6456 36.9614 22.5827C36.946 22.5204 36.9381 22.4562 36.9226 22.3942C36.8965 22.2896 36.9379 22.4766 36.9331 22.472C36.9183 22.4574 36.9246 22.3667 36.9235 22.345C36.9164 22.2057 36.9323 22.0705 36.9348 21.9321C36.9367 21.8249 36.9259 22.0157 36.9237 22.0101C36.9242 21.978 36.9299 21.9461 36.9405 21.9158C36.9566 21.8428 36.9716 21.7699 36.9913 21.6977C37.0139 21.615 37.0399 21.5333 37.0693 21.4527C37.0802 21.4225 37.0936 21.3928 37.1038 21.3624C37.1413 21.2509 37.0297 21.497 37.0912 21.3965C37.1758 21.2582 37.2389 21.1085 37.3287 20.972C37.35 20.9396 37.4794 20.7593 37.4107 20.8503C37.3423 20.941 37.481 20.7691 37.5073 20.7399C37.6164 20.6187 37.7446 20.5192 37.8576 20.4031C37.9244 20.3344 37.8109 20.4369 37.8042 20.4417C37.8392 20.4168 37.8734 20.3909 37.9089 20.3665C37.9706 20.324 38.0339 20.2839 38.0986 20.246C38.1716 20.2033 38.2541 20.1716 38.3248 20.1264C38.4083 20.073 38.2609 20.1498 38.2583 20.1514C38.2964 20.1325 38.3363 20.1174 38.3774 20.1061C38.4462 20.0817 38.7457 19.9528 38.8086 19.9931C38.8057 19.9913 38.5812 20.0111 38.7627 19.9995C38.8056 19.9967 38.8483 19.9926 38.8913 19.9908C38.9782 19.9872 39.0648 19.9894 39.1516 19.9939C39.387 19.9923 39.6123 19.8983 39.7787 19.7322C39.9452 19.5661 40.0394 19.3412 40.0409 19.1063C40.0359 18.8724 39.9406 18.6496 39.7749 18.4842C39.6092 18.3188 39.3859 18.2237 39.1516 18.2186Z" fill="#E6E6E6"/>
<path d="M51.6017 18.2186C50.8295 18.2139 50.0729 18.4361 49.4263 18.8576C48.7797 19.2791 48.2717 19.8812 47.9656 20.5888C47.6232 21.2815 47.5175 22.067 47.6647 22.8252C47.8119 23.5835 48.2038 24.2728 48.7806 24.7877C49.3228 25.2481 49.9731 25.5638 50.6708 25.7053C51.3684 25.8467 52.0906 25.8093 52.7698 25.5966C53.4645 25.3544 54.0669 24.9033 54.494 24.3054C54.9212 23.7074 55.1522 22.992 55.1552 22.2576C55.1862 21.4429 54.965 20.6383 54.5218 19.9534C54.0785 19.2685 53.4347 18.7365 52.6778 18.4297C52.4504 18.3681 52.2078 18.3986 52.0029 18.5147C51.798 18.6309 51.6474 18.8231 51.5839 19.0496C51.5278 19.2764 51.5609 19.516 51.6765 19.7191C51.792 19.9222 51.9812 20.0734 52.205 20.1415C52.36 20.2013 52.0634 20.0654 52.2082 20.1441C52.2677 20.1765 52.3283 20.2057 52.3867 20.2403C52.4364 20.2696 52.4839 20.3018 52.5322 20.3333C52.6983 20.4414 52.4512 20.2539 52.5573 20.3511C52.6493 20.4354 52.7405 20.5176 52.8241 20.6107C52.8558 20.6458 52.9797 20.7436 52.8834 20.6753C52.8097 20.623 52.855 20.6353 52.8834 20.6773C52.9049 20.7092 52.9277 20.7402 52.949 20.7722C53.0183 20.8769 53.0813 20.9857 53.1377 21.0979C53.1508 21.1238 53.1627 21.1504 53.176 21.1762C53.2009 21.2247 53.237 21.2373 53.1785 21.1767C53.1225 21.1188 53.1581 21.1227 53.1782 21.1785C53.1913 21.2151 53.2057 21.2513 53.2185 21.2881C53.2602 21.4078 53.2952 21.5298 53.3233 21.6534C53.3364 21.7105 53.3469 21.768 53.3581 21.8255C53.3978 22.0293 53.3523 21.6987 53.3619 21.8501C53.3699 21.9766 53.3792 22.1016 53.377 22.2285C53.376 22.2866 53.3735 22.3446 53.3694 22.4026C53.3674 22.4315 53.3642 22.4603 53.3622 22.4892C53.353 22.6285 53.3527 22.4383 53.3723 22.4253C53.3316 22.5435 53.3046 22.666 53.2919 22.7904C53.276 22.8456 53.257 22.8996 53.2393 22.9541C53.1775 23.1446 53.2974 22.8503 53.2315 22.9805C53.1772 23.0923 53.1165 23.2009 53.0498 23.3058C53.0208 23.3497 52.9116 23.4489 53.0009 23.3799C53.0978 23.3049 52.9501 23.4339 52.9185 23.4671C52.878 23.5098 52.836 23.5509 52.7924 23.5906C52.7645 23.6178 52.7351 23.6433 52.7042 23.6671C52.6986 23.6643 52.8528 23.5643 52.7697 23.6172C52.664 23.6845 52.5639 23.7565 52.4526 23.815C52.4396 23.8218 52.2972 23.8877 52.2978 23.89C52.2917 23.866 52.4809 23.8235 52.351 23.8654C52.3237 23.8742 52.297 23.8848 52.2698 23.894C52.1516 23.9337 52.0309 23.9658 51.9086 23.99C51.8806 23.9956 51.8509 23.9984 51.8233 24.0055C51.7314 24.0292 51.9112 23.9916 51.9166 23.9947C51.8486 23.9918 51.7806 23.9978 51.7142 24.0126C51.588 24.0198 51.4615 24.0198 51.3354 24.0125C51.3062 24.0109 51.277 24.008 51.2479 24.0063C51.1801 24.0024 51.1304 23.9536 51.2205 24.0065C51.2901 24.0474 51.2843 24.0176 51.2227 24.0062C51.1939 24.0009 51.1649 23.9964 51.1361 23.991C51.0112 23.9677 50.8877 23.9375 50.7661 23.9006C50.7007 23.8807 50.6366 23.8575 50.5721 23.835C50.544 23.8269 50.5166 23.8164 50.4903 23.8036C50.4899 23.7963 50.6566 23.8831 50.5686 23.8357C50.4575 23.776 50.3426 23.7259 50.2342 23.6606C50.1763 23.6257 50.1207 23.5879 50.0644 23.5505C50.0396 23.5357 50.0161 23.5188 49.994 23.5002C49.9959 23.4927 50.1319 23.6185 50.0605 23.5506C49.9702 23.4647 49.8736 23.3878 49.7881 23.2964C49.7685 23.2755 49.75 23.2536 49.7305 23.2326L49.7117 23.2111C49.6635 23.1523 49.6626 23.1526 49.709 23.2119C49.7561 23.2258 49.754 23.2774 49.7092 23.2104C49.6933 23.1865 49.6764 23.1633 49.6605 23.1393C49.5882 23.0366 49.5267 22.9269 49.4766 22.8117C49.481 22.8084 49.5537 23.0253 49.4981 22.8616C49.4876 22.8307 49.4758 22.8002 49.4655 22.7692C49.445 22.7077 49.4271 22.6456 49.4115 22.5827C49.3962 22.5204 49.3883 22.4562 49.3728 22.3942C49.3466 22.2896 49.388 22.4766 49.3833 22.472C49.3685 22.4574 49.3748 22.3667 49.3737 22.345C49.3666 22.2057 49.3825 22.0705 49.3849 21.9321C49.3869 21.8249 49.3761 22.0157 49.3738 22.0101C49.3744 21.978 49.3801 21.9461 49.3907 21.9158C49.4068 21.8428 49.4218 21.7699 49.4415 21.6977C49.4641 21.615 49.49 21.5333 49.5194 21.4527C49.5304 21.4225 49.5438 21.3928 49.554 21.3624C49.5914 21.2509 49.4799 21.497 49.5414 21.3965C49.626 21.2582 49.689 21.1085 49.7789 20.972C49.8001 20.9396 49.9296 20.7593 49.8609 20.8503C49.7925 20.941 49.9312 20.7691 49.9574 20.7399C50.0665 20.6187 50.1948 20.5192 50.3077 20.4031C50.3746 20.3344 50.2611 20.4369 50.2544 20.4417C50.2894 20.4168 50.3236 20.3909 50.359 20.3665C50.4208 20.324 50.484 20.2839 50.5488 20.246C50.6217 20.2033 50.7042 20.1716 50.7749 20.1264C50.8585 20.073 50.7111 20.1498 50.7084 20.1514C50.7466 20.1325 50.7865 20.1174 50.8276 20.1061C50.8964 20.0817 51.1959 19.9528 51.2587 19.9931C51.2559 19.9913 51.0313 20.0111 51.2129 19.9995C51.2558 19.9967 51.2985 19.9926 51.3415 19.9908C51.4284 19.9872 51.515 19.9894 51.6018 19.9939C51.8372 19.9923 52.0625 19.8983 52.2289 19.7322C52.3953 19.5661 52.4895 19.3412 52.4911 19.1063C52.486 18.8724 52.3907 18.6496 52.225 18.4842C52.0593 18.3188 51.836 18.2237 51.6017 18.2186Z" fill="#E6E6E6"/>
<path d="M231.461 214.799H13.343C10.5849 214.796 7.94058 213.701 5.99026 211.754C4.03994 209.808 2.94288 207.169 2.93977 204.416V10.3833C2.94287 7.63046 4.03991 4.99121 5.99022 3.04462C7.94054 1.09803 10.5848 0.00308697 13.343 0H231.461C234.219 0.00308697 236.864 1.09803 238.814 3.04462C240.764 4.99121 241.861 7.63046 241.865 10.3833V204.416C241.861 207.169 240.764 209.808 238.814 211.754C236.864 213.701 234.219 214.796 231.461 214.799ZM13.343 1.18347C10.8992 1.18624 8.55633 2.1564 6.82832 3.88111C5.1003 5.60583 4.12829 7.94424 4.1255 10.3833V204.416C4.12835 206.855 5.1004 209.193 6.82841 210.918C8.55642 212.643 10.8993 213.613 13.343 213.615H231.461C233.905 213.613 236.248 212.643 237.976 210.918C239.704 209.193 240.676 206.855 240.679 204.416V10.3833C240.676 7.94424 239.704 5.60583 237.976 3.88111C236.248 2.1564 233.905 1.18624 231.461 1.18347H13.343Z" fill="#E6E6E6"/>
<path d="M12.9816 132.019L89.6861 131.786L165.999 131.554L209.048 131.424C209.278 131.416 209.497 131.319 209.657 131.153C209.817 130.988 209.907 130.766 209.907 130.536C209.907 130.306 209.817 130.085 209.657 129.919C209.497 129.754 209.278 129.657 209.048 129.649L132.343 129.881L56.03 130.113L12.9816 130.244C12.7511 130.252 12.5327 130.349 12.3724 130.514C12.2122 130.68 12.1226 130.901 12.1226 131.131C12.1226 131.362 12.2122 131.583 12.3724 131.748C12.5327 131.914 12.7511 132.011 12.9816 132.019Z" fill="#E6E6E6"/>
<path d="M51.6778 130.58L52.1521 102.628C52.1715 101.485 50.3929 101.485 50.3735 102.628L49.8992 130.58C49.8798 131.723 51.6584 131.723 51.6778 130.58Z" fill="#E6E6E6"/>
<path d="M88.3378 130.882L89.4937 95.7485L89.8239 85.7103C89.8615 84.5677 88.0828 84.569 88.0453 85.7103L86.8894 120.844L86.5592 130.882C86.5216 132.025 88.3003 132.024 88.3378 130.882Z" fill="#E6E6E6"/>
<path d="M124.899 69.056C124.202 81.5001 122.912 118.205 122.215 130.649C122.151 131.791 123.929 131.787 123.993 130.649C124.69 118.205 125.98 81.5001 126.677 69.056C126.741 67.9145 124.963 67.9181 124.899 69.056Z" fill="#E6E6E6"/>
<path d="M161.284 118.163L161.066 130.123C161.045 131.266 162.824 131.266 162.845 130.123C163.102 115.997 163.762 116.457 163.835 112.47C163.856 111.328 162.077 111.327 162.056 112.47C162.056 112.47 161.541 104.036 161.284 118.163Z" fill="#E6E6E6"/>
<path d="M196.922 86.7413L197.123 120.298L197.181 129.906C197.189 130.136 197.286 130.354 197.452 130.514C197.618 130.674 197.84 130.764 198.07 130.764C198.301 130.764 198.523 130.674 198.689 130.514C198.854 130.354 198.952 130.136 198.96 129.906L198.759 96.3499L198.701 86.7413C198.693 86.5112 198.596 86.2932 198.43 86.1333C198.264 85.9733 198.042 85.8839 197.812 85.8839C197.581 85.8839 197.359 85.9733 197.193 86.1333C197.027 86.2932 196.93 86.5112 196.922 86.7413Z" fill="#E6E6E6"/>
<path d="M13.1246 131.02C11.6524 126.982 14.9711 123.099 18.3812 121.354C22.4666 119.263 27.1664 118.789 31.2951 116.773C37.4504 113.769 41.9337 108.376 45.9231 102.978C50.0291 97.4219 53.7861 91.459 59.0036 86.8427C61.7529 84.356 65.0001 82.4804 68.5302 81.3401C72.978 79.9547 77.6951 79.8597 82.2911 80.418C91.788 81.5717 100.592 85.4867 109.755 87.975C118.394 90.3209 127.913 91.6401 136.393 87.992C140.701 86.1386 144.224 83.03 148.008 80.34C151.67 77.7092 155.765 75.7378 160.108 74.5146C168.62 72.152 177.916 72.7829 185.841 76.7768C193.126 80.4008 198.894 86.4769 202.127 93.9326C205.884 102.89 205.395 112.901 204.168 122.33C203.85 124.767 203.473 127.196 203.091 129.624C202.915 130.741 204.629 131.223 204.806 130.096C206.335 120.373 207.858 110.343 205.957 100.559C204.312 92.0157 199.606 84.3633 192.717 79.0335C185.8 73.6893 177.2 70.9805 168.462 71.3935C163.883 71.6056 159.376 72.6062 155.138 74.3511C150.74 76.1671 147.015 78.8587 143.231 81.6909C139.341 84.6028 135.331 87.0114 130.502 87.9611C125.817 88.8822 120.944 88.5369 116.28 87.6672C106.656 85.8725 97.6862 81.7586 88.1443 79.6508C79.3037 77.6978 69.7639 77.5027 61.8475 82.4875C55.7579 86.3219 51.455 92.2747 47.3254 98.0228C43.232 103.721 39.0869 109.813 33.1013 113.705C29.45 116.08 25.3455 116.956 21.261 118.291C17.1659 119.63 13.2346 121.888 11.5648 126.075C10.8452 127.8 10.7899 129.729 11.4096 131.492C11.7979 132.557 13.5174 132.098 13.1246 131.02Z" fill="#E6E6E6"/>
<path d="M51.0884 98.7631L51.0854 98.7646L51.0914 98.7631H51.0884Z" fill="#E6E6E6"/>
<path d="M54.1716 97.1302C53.7605 96.4037 53.1048 95.846 52.3207 95.5564C51.5367 95.2668 50.6752 95.2639 49.8893 95.5483C49.4986 95.6906 49.1404 95.9097 48.8361 96.1926C48.5317 96.4755 48.2872 96.8164 48.1171 97.1952C48.0831 97.2757 48.0632 97.3604 48.0354 97.4428C47.9969 97.505 47.9505 97.5612 47.916 97.6262C47.5474 98.3594 47.4465 99.1979 47.6306 99.9973C47.8147 100.797 48.2724 101.507 48.9248 102.006C49.5772 102.505 50.3835 102.761 51.2048 102.73C52.0261 102.7 52.8109 102.384 53.4242 101.838C54.0688 101.257 54.4944 100.472 54.6304 99.6158C54.7664 98.7593 54.6045 97.8821 54.1716 97.1302ZM51.9441 98.6377C51.9487 98.7237 51.9514 98.6825 51.9441 98.6377V98.6377ZM51.7176 98.1239C51.7089 98.1138 51.71 98.1149 51.7176 98.1239V98.1239ZM50.7196 98.5244C50.705 98.5004 50.7063 98.5039 50.7196 98.5244V98.5244ZM50.9562 98.7246C50.9902 98.7397 51.0125 98.7437 50.9562 98.7246V98.7246ZM51.0618 98.7748L51.0852 98.7641C51.0795 98.7646 51.0738 98.7635 51.0687 98.7608L51.0694 98.7607L51.0877 98.763L51.0911 98.7614L51.0805 98.759C51.0897 98.7586 51.0905 98.76 51.0911 98.7614C51.1969 98.7131 51.1256 98.7362 51.0642 98.7552L51.0601 98.7543C51.0218 98.7348 50.9806 98.7217 50.9382 98.7152C50.9343 98.713 50.9296 98.7114 50.9263 98.7091C50.8923 98.6849 50.7202 98.5507 50.8798 98.6914C50.8451 98.6607 50.8107 98.6307 50.7781 98.5976C50.7588 98.5779 50.7413 98.5565 50.7259 98.5336C50.7049 98.4978 50.6846 98.4616 50.665 98.4251L50.662 98.4054C50.6594 98.389 50.6574 98.3822 50.6553 98.3724C50.6563 98.3623 50.6579 98.3514 50.6595 98.3408C50.6714 98.3089 50.679 98.2755 50.6821 98.2416L50.689 98.2329C50.7145 98.1973 50.7369 98.1558 50.7612 98.1189C50.6324 98.3142 50.8116 98.0973 50.8251 98.0698C50.8273 98.0651 50.8234 98.0677 50.8243 98.0644C50.8295 98.0615 50.8279 98.0635 50.8342 98.0598C50.8742 98.0364 50.912 98.0102 50.9526 97.9878C51.0009 97.961 51.1912 97.9071 50.9939 97.9634C51.0387 97.9506 51.0817 97.9345 51.127 97.9227C51.1352 97.9205 51.2017 97.9113 51.2375 97.9048C51.2689 97.904 51.2994 97.9031 51.3026 97.9031C51.3174 97.9033 51.3321 97.9051 51.3469 97.9058C51.3141 97.9101 51.4593 97.9414 51.5024 97.9481C51.5086 97.9529 51.5118 97.9561 51.5203 97.9623C51.5567 97.9888 51.601 98.0125 51.6395 98.0373C51.4675 97.9263 51.6417 98.0461 51.6746 98.0789C51.6942 98.0985 51.7123 98.1194 51.7308 98.14C51.7478 98.1597 51.7631 98.1806 51.7766 98.2027C51.8048 98.2543 51.8348 98.3065 51.8644 98.3572L51.8727 98.3703C51.8725 98.3719 51.8724 98.3736 51.8724 98.3753C51.8879 98.4576 51.9106 98.5383 51.9405 98.6166C51.942 98.6232 51.9431 98.6299 51.9439 98.6366C51.9466 98.6817 51.9504 98.7266 51.9505 98.772L51.9501 98.7811C51.8131 98.7099 51.6612 98.6721 51.5067 98.671C51.3523 98.6699 51.1998 98.7055 51.0618 98.7748Z" fill="#E6E6E6"/>
<path d="M51.0936 98.762C51.098 98.7634 51.0928 98.7635 51.0928 98.7635L51.0936 98.762Z" fill="#E6E6E6"/>
<path d="M51.0936 98.7629L51.0901 98.7634C51.0945 98.7639 51.0936 98.7629 51.0936 98.7629Z" fill="#E6E6E6"/>
<path d="M51.0914 98.7614L51.0934 98.7624L51.0914 98.7614Z" fill="#E6E6E6"/>
<path d="M89.0318 82.1946L89.0288 82.1961L89.0348 82.1946H89.0318Z" fill="#E6E6E6"/>
<path d="M92.115 80.5617C91.704 79.8351 91.0482 79.2775 90.2641 78.9879C89.4801 78.6983 88.6186 78.6954 87.8327 78.9798C87.442 79.1221 87.0839 79.3412 86.7795 79.6241C86.4751 79.9069 86.2306 80.2478 86.0606 80.6266C86.0265 80.7072 86.0066 80.7918 85.9788 80.8743C85.9403 80.9365 85.894 80.9926 85.8594 81.0577C85.4908 81.7908 85.3899 82.6294 85.574 83.4288C85.7582 84.2282 86.2158 84.9385 86.8682 85.4374C87.5206 85.9363 88.3269 86.1924 89.1482 86.1618C89.9695 86.1312 90.7544 85.8157 91.3677 85.2696C92.0122 84.6881 92.4379 83.9038 92.5738 83.0473C92.7098 82.1908 92.5479 81.3136 92.115 80.5617ZM89.8875 82.0692C89.8921 82.1552 89.8948 82.114 89.8875 82.0692V82.0692ZM89.6611 81.5553C89.6523 81.5453 89.6534 81.5464 89.6611 81.5553V81.5553ZM88.6631 81.9558C88.6484 81.9319 88.6497 81.9353 88.6631 81.9558V81.9558ZM88.8996 82.156C88.9337 82.1712 88.9559 82.1752 88.8996 82.156V82.156ZM89.0052 82.2063L89.0286 82.1955C89.0229 82.1961 89.0171 82.195 89.012 82.1923L89.0127 82.1922L89.0311 82.1944L89.0345 82.1929L89.0239 82.1904C89.0331 82.1901 89.0339 82.1915 89.0345 82.1929C89.1403 82.1445 89.0689 82.1677 89.0076 82.1867L89.0035 82.1857C88.9652 82.1663 88.924 82.1531 88.8816 82.1467C88.8776 82.1445 88.873 82.1429 88.8697 82.1405C88.8356 82.1163 88.6636 81.9822 88.8232 82.1228C88.7885 82.0922 88.7541 82.0621 88.7215 82.0291C88.7022 82.0093 88.6847 81.9879 88.6693 81.9651C88.6483 81.9292 88.628 81.893 88.6083 81.8565L88.6054 81.8369C88.6028 81.8205 88.6008 81.8137 88.5987 81.8039C88.5997 81.7937 88.6013 81.7828 88.6029 81.7722C88.6148 81.7403 88.6224 81.707 88.6255 81.673L88.6323 81.6644C88.6579 81.6288 88.6803 81.5873 88.7046 81.5503C88.5758 81.7457 88.755 81.5288 88.7684 81.5013C88.7707 81.4966 88.7667 81.4991 88.7677 81.4959C88.7729 81.493 88.7713 81.495 88.7776 81.4913C88.8176 81.4678 88.8554 81.4416 88.896 81.4192C88.9443 81.3925 89.1346 81.3386 88.9372 81.3949C88.9821 81.3821 89.0251 81.3659 89.0704 81.3541C89.0786 81.352 89.1451 81.3427 89.1808 81.3363C89.2123 81.3355 89.2428 81.3346 89.246 81.3346C89.2607 81.3348 89.2755 81.3366 89.2903 81.3372C89.2575 81.3416 89.4027 81.3729 89.4458 81.3795C89.452 81.3844 89.4552 81.3875 89.4636 81.3937C89.5001 81.4203 89.5444 81.4439 89.5829 81.4687C89.4109 81.3578 89.5851 81.4775 89.618 81.5103C89.6376 81.5299 89.6557 81.5509 89.6742 81.5715C89.6911 81.5911 89.7065 81.6121 89.72 81.6342C89.7482 81.6858 89.7782 81.738 89.8078 81.7887L89.816 81.8017C89.8159 81.8034 89.8158 81.8051 89.8158 81.8068C89.8312 81.8891 89.854 81.9698 89.8839 82.048C89.8854 82.0547 89.8865 82.0614 89.8873 82.0681C89.89 82.1132 89.8938 82.1581 89.8939 82.2034L89.8935 82.2126C89.7565 82.1413 89.6046 82.1036 89.4501 82.1025C89.2957 82.1014 89.1432 82.137 89.0052 82.2063Z" fill="#E6E6E6"/>
<path d="M89.037 82.1944L89.0336 82.1949C89.038 82.1954 89.037 82.1944 89.037 82.1944Z" fill="#E6E6E6"/>
<path d="M89.0348 82.1928L89.0368 82.1938L89.0348 82.1928Z" fill="#E6E6E6"/>
<path d="M89.037 82.1935C89.0414 82.1948 89.0362 82.195 89.0362 82.195L89.037 82.1935Z" fill="#E6E6E6"/>
<path d="M125.792 90.4771L125.794 90.4781L125.792 90.4771Z" fill="#E6E6E6"/>
<path d="M128.873 63.9932C128.462 63.2666 127.806 62.709 127.022 62.4194C126.238 62.1298 125.376 62.1269 124.59 62.4113C124.2 62.5536 123.842 62.7727 123.537 63.0556C123.233 63.3384 122.988 63.6794 122.818 64.0582C122.784 64.1387 122.764 64.2233 122.736 64.3058C122.698 64.368 122.652 64.4242 122.617 64.4892C122.248 65.2224 122.148 66.0609 122.332 66.8603C122.516 67.6597 122.973 68.3701 123.626 68.8689C124.278 69.3678 125.085 69.624 125.906 69.5933C126.727 69.5627 127.512 69.2472 128.125 68.7011C128.77 68.1196 129.196 67.3353 129.331 66.4788C129.467 65.6223 129.306 64.7451 128.873 63.9932ZM126.645 65.5007C126.65 65.5867 126.652 65.5455 126.645 65.5007V65.5007ZM126.419 64.9868C126.41 64.9768 126.411 64.9779 126.419 64.9868V64.9868ZM125.421 65.3874C125.406 65.3634 125.407 65.3668 125.421 65.3874V65.3874ZM125.657 65.5875C125.691 65.6027 125.714 65.6067 125.657 65.5875V65.5875ZM125.763 65.6378L125.786 65.6271C125.781 65.6276 125.775 65.6265 125.77 65.6238L125.77 65.6237L125.789 65.6259L125.792 65.6244L125.782 65.6219C125.791 65.6216 125.792 65.623 125.792 65.6244C125.898 65.576 125.827 65.5992 125.765 65.6182L125.761 65.6172C125.723 65.5978 125.682 65.5846 125.639 65.5782C125.635 65.576 125.631 65.5744 125.627 65.572C125.593 65.5478 125.421 65.4137 125.581 65.5543C125.546 65.5237 125.512 65.4936 125.479 65.4606C125.46 65.4408 125.442 65.4194 125.427 65.3966C125.406 65.3607 125.386 65.3246 125.366 65.2881L125.363 65.2684C125.36 65.252 125.358 65.2452 125.356 65.2354C125.357 65.2252 125.359 65.2143 125.361 65.2038C125.372 65.1718 125.38 65.1385 125.383 65.1046L125.39 65.0959C125.416 65.0603 125.438 65.0188 125.462 64.9818C125.333 65.1772 125.513 64.9603 125.526 64.9328C125.528 64.9281 125.524 64.9306 125.525 64.9274C125.531 64.9245 125.529 64.9265 125.535 64.9228C125.575 64.8993 125.613 64.8732 125.654 64.8507C125.702 64.824 125.892 64.7701 125.695 64.8264C125.74 64.8136 125.783 64.7975 125.828 64.7856C125.836 64.7835 125.903 64.7742 125.939 64.7678C125.97 64.767 126 64.7661 126.004 64.7661C126.018 64.7663 126.033 64.7681 126.048 64.7687C126.015 64.7731 126.16 64.8044 126.203 64.811C126.21 64.8159 126.213 64.819 126.221 64.8252C126.258 64.8518 126.302 64.8754 126.341 64.9002C126.169 64.7893 126.343 64.9091 126.376 64.9418C126.395 64.9615 126.413 64.9824 126.432 65.003C126.449 65.0226 126.464 65.0436 126.478 65.0657C126.506 65.1173 126.536 65.1695 126.565 65.2202L126.574 65.2332C126.574 65.2349 126.573 65.2366 126.573 65.2383C126.589 65.3206 126.612 65.4013 126.642 65.4796C126.643 65.4862 126.644 65.4929 126.645 65.4996C126.648 65.5447 126.651 65.5896 126.652 65.6349L126.651 65.6441C126.514 65.5728 126.362 65.5351 126.208 65.534C126.053 65.5329 125.901 65.5685 125.763 65.6378Z" fill="#E6E6E6"/>
<path d="M125.789 90.4789L125.786 90.4804L125.792 90.4789H125.789Z" fill="#E6E6E6"/>
<path d="M125.795 90.4786L125.791 90.4792C125.796 90.4796 125.795 90.4786 125.795 90.4786Z" fill="#E6E6E6"/>
<path d="M125.795 90.4778C125.799 90.4791 125.794 90.4793 125.794 90.4793L125.795 90.4778Z" fill="#E6E6E6"/>
<path d="M166.223 109.557C165.812 108.83 165.156 108.272 164.372 107.983C163.588 107.693 162.727 107.69 161.941 107.975C161.55 108.117 161.192 108.336 160.888 108.619C160.583 108.902 160.339 109.243 160.169 109.622C160.135 109.702 160.115 109.787 160.087 109.869C160.048 109.931 160.002 109.988 159.968 110.053C159.599 110.786 159.498 111.624 159.682 112.424C159.866 113.223 160.324 113.933 160.976 114.432C161.629 114.931 162.435 115.187 163.256 115.157C164.078 115.126 164.863 114.811 165.476 114.265C166.12 113.683 166.546 112.899 166.682 112.042C166.818 111.186 166.656 110.309 166.223 109.557ZM163.996 111.064C164 111.15 164.003 111.109 163.996 111.064V111.064ZM163.769 110.55C163.761 110.54 163.762 110.541 163.769 110.55V110.55ZM162.771 110.951C162.757 110.927 162.758 110.93 162.771 110.951V110.951ZM163.008 111.151C163.042 111.166 163.064 111.17 163.008 111.151V111.151ZM163.113 111.201L163.137 111.19C163.131 111.191 163.125 111.19 163.12 111.187L163.121 111.187L163.139 111.189L163.143 111.188L163.132 111.185C163.141 111.185 163.142 111.186 163.143 111.188C163.248 111.139 163.177 111.163 163.116 111.182L163.112 111.181C163.073 111.161 163.032 111.148 162.99 111.142C162.986 111.139 162.981 111.138 162.978 111.135C162.944 111.111 162.772 110.977 162.931 111.118C162.897 111.087 162.862 111.057 162.83 111.024C162.81 111.004 162.793 110.983 162.777 110.96C162.756 110.924 162.736 110.888 162.717 110.851L162.714 110.832C162.711 110.815 162.709 110.809 162.707 110.799C162.708 110.789 162.709 110.778 162.711 110.767C162.723 110.735 162.731 110.702 162.734 110.668L162.741 110.659C162.766 110.624 162.788 110.582 162.813 110.545C162.684 110.741 162.863 110.524 162.877 110.496C162.879 110.492 162.875 110.494 162.876 110.491C162.881 110.488 162.88 110.49 162.886 110.486C162.926 110.463 162.964 110.437 163.004 110.414C163.052 110.387 163.243 110.333 163.045 110.39C163.09 110.377 163.133 110.361 163.179 110.349C163.187 110.347 163.253 110.338 163.289 110.331C163.32 110.33 163.351 110.329 163.354 110.33C163.369 110.33 163.384 110.332 163.398 110.332C163.366 110.337 163.511 110.368 163.554 110.374C163.56 110.379 163.563 110.382 163.572 110.389C163.608 110.415 163.653 110.439 163.691 110.464C163.519 110.353 163.693 110.472 163.726 110.505C163.746 110.525 163.764 110.546 163.782 110.566C163.799 110.586 163.815 110.607 163.828 110.629C163.856 110.681 163.886 110.733 163.916 110.784L163.924 110.797C163.924 110.798 163.924 110.8 163.924 110.802C163.939 110.884 163.962 110.965 163.992 111.043C163.994 111.05 163.995 111.056 163.995 111.063C163.998 111.108 164.002 111.153 164.002 111.198L164.002 111.208C163.865 111.136 163.713 111.099 163.558 111.097C163.404 111.096 163.251 111.132 163.113 111.201Z" fill="#E6E6E6"/>
<path d="M163.14 72.1351L163.137 72.1366L163.143 72.1351H163.14Z" fill="#E6E6E6"/>
<path d="M163.145 72.1349L163.142 72.1355C163.146 72.1359 163.145 72.1349 163.145 72.1349Z" fill="#E6E6E6"/>
<path d="M163.145 72.134C163.15 72.1354 163.144 72.1355 163.144 72.1355L163.145 72.134Z" fill="#E6E6E6"/>
<path d="M163.143 72.1334L163.145 72.1344L163.143 72.1334Z" fill="#E6E6E6"/>
<path d="M201.202 82.3369C200.791 81.6103 200.135 81.0527 199.351 80.7631C198.567 80.4735 197.706 80.4706 196.92 80.755C196.529 80.8973 196.171 81.1164 195.867 81.3993C195.562 81.6821 195.318 82.023 195.148 82.4019C195.114 82.4824 195.094 82.567 195.066 82.6495C195.028 82.7117 194.981 82.7679 194.947 82.8329C194.578 83.5661 194.477 84.4046 194.661 85.204C194.845 86.0034 195.303 86.7137 195.955 87.2126C196.608 87.7115 197.414 87.9676 198.235 87.937C199.057 87.9064 199.842 87.5909 200.455 87.0448C201.099 86.4633 201.525 85.679 201.661 84.8225C201.797 83.966 201.635 83.0888 201.202 82.3369ZM198.975 83.8444C198.979 83.9304 198.982 83.8892 198.975 83.8444V83.8444ZM198.748 83.3305C198.74 83.3205 198.741 83.3216 198.748 83.3305V83.3305ZM197.75 83.7311C197.736 83.7071 197.737 83.7105 197.75 83.7311V83.7311ZM197.987 83.9312C198.021 83.9464 198.043 83.9504 197.987 83.9312V83.9312ZM198.092 83.9815L198.116 83.9708C198.11 83.9713 198.104 83.9702 198.099 83.9675L198.1 83.9674L198.118 83.9696L198.122 83.9681L198.111 83.9656C198.12 83.9653 198.121 83.9667 198.122 83.9681C198.228 83.9197 198.156 83.9429 198.095 83.9619L198.091 83.9609C198.052 83.9415 198.011 83.9283 197.969 83.9219C197.965 83.9197 197.96 83.9181 197.957 83.9157C197.923 83.8915 197.751 83.7574 197.91 83.898C197.876 83.8674 197.841 83.8373 197.809 83.8043C197.789 83.7845 197.772 83.7631 197.757 83.7403C197.736 83.7044 197.715 83.6682 197.696 83.6317L197.693 83.6121C197.69 83.5957 197.688 83.5889 197.686 83.5791C197.687 83.5689 197.689 83.558 197.69 83.5475C197.702 83.5155 197.71 83.4822 197.713 83.4482L197.72 83.4396C197.745 83.404 197.768 83.3625 197.792 83.3255C197.663 83.5209 197.842 83.304 197.856 83.2765C197.858 83.2718 197.854 83.2743 197.855 83.2711C197.86 83.2682 197.859 83.2702 197.865 83.2665C197.905 83.243 197.943 83.2168 197.983 83.1944C198.032 83.1677 198.222 83.1138 198.024 83.1701C198.069 83.1573 198.112 83.1411 198.158 83.1293C198.166 83.1272 198.232 83.1179 198.268 83.1115C198.3 83.1107 198.33 83.1098 198.333 83.1098C198.348 83.11 198.363 83.1118 198.378 83.1124C198.345 83.1168 198.49 83.1481 198.533 83.1547C198.539 83.1596 198.542 83.1627 198.551 83.1689C198.587 83.1955 198.632 83.2191 198.67 83.2439C198.498 83.133 198.672 83.2527 198.705 83.2855C198.725 83.3051 198.743 83.3261 198.761 83.3467C198.778 83.3663 198.794 83.3873 198.807 83.4094C198.835 83.461 198.865 83.5132 198.895 83.5639L198.903 83.5769C198.903 83.5786 198.903 83.5803 198.903 83.582C198.918 83.6643 198.941 83.745 198.971 83.8232C198.973 83.8299 198.974 83.8366 198.975 83.8433C198.977 83.8884 198.981 83.9333 198.981 83.9786L198.981 83.9878C198.844 83.9165 198.692 83.8788 198.537 83.8777C198.383 83.8766 198.23 83.9122 198.092 83.9815Z" fill="#E6E6E6"/>
<path d="M198.119 83.9698L198.116 83.9713L198.122 83.9698H198.119Z" fill="#E6E6E6"/>
<path d="M198.122 83.968L198.124 83.969L198.122 83.968Z" fill="#E6E6E6"/>
<path d="M198.124 83.9687C198.129 83.97 198.123 83.9702 198.123 83.9702L198.124 83.9687Z" fill="#E6E6E6"/>
<path d="M198.124 83.9696L198.121 83.9701C198.125 83.9706 198.124 83.9696 198.124 83.9696Z" fill="#E6E6E6"/>
<path d="M188.533 111.088L160.967 112.617C160.811 112.626 160.659 112.575 160.54 112.474C160.421 112.374 160.346 112.231 160.329 112.077C160.312 111.923 160.355 111.768 160.449 111.644C160.544 111.52 160.682 111.438 160.835 111.413L189.011 106.837L188.533 111.088Z" fill="#3F3D56"/>
<path d="M223.566 172.342L233.954 154.899L241.632 158.518C241.632 158.518 228.402 175.01 227.98 175.485C228.161 176.287 228.093 177.124 227.787 177.886C227.48 178.649 226.948 179.3 226.263 179.755C225.577 180.209 224.769 180.445 223.946 180.431C223.123 180.418 222.323 180.155 221.653 179.678C220.983 179.201 220.474 178.532 220.193 177.759C219.912 176.987 219.872 176.148 220.08 175.353C220.287 174.557 220.731 173.844 221.354 173.306C221.976 172.769 222.748 172.432 223.566 172.342Z" fill="#FFB6B6"/>
<path d="M227.887 131.823L244.717 140.586C245.769 141.343 246.651 142.31 247.307 143.426C247.963 144.541 248.379 145.782 248.527 147.067C248.675 148.352 248.554 149.654 248.169 150.89C247.785 152.126 247.146 153.268 246.294 154.243L234.692 167.527L229.637 160.691L233.533 152.56L225.99 150.575L227.887 131.823Z" fill="#0EA5E9"/>
<path d="M179.926 111.373L178.031 131.576L169.539 131.591C169.539 131.591 174.411 111.03 174.588 110.421C174.081 109.774 173.782 108.989 173.732 108.169C173.682 107.348 173.882 106.532 174.307 105.829C174.731 105.125 175.36 104.566 176.109 104.226C176.859 103.887 177.694 103.782 178.504 103.927C179.315 104.071 180.062 104.458 180.648 105.035C181.233 105.613 181.629 106.354 181.783 107.161C181.937 107.968 181.842 108.803 181.511 109.555C181.179 110.307 180.626 110.941 179.926 111.373Z" fill="#FFB6B6"/>
<path d="M196.828 152.689L177.285 149.111C169.055 148.124 165.678 142.719 167.162 137.447L171.941 120.482L179.444 124.497L179.415 133.509L189.916 132.076L196.828 152.689Z" fill="#0EA5E9"/>
<path d="M188.828 292.311H183.455L180.898 271.623H188.829L188.828 292.311Z" fill="#FFB6B6"/>
<path d="M189.018 297.907L172.493 297.906V297.697C172.493 295.995 173.17 294.362 174.377 293.158C175.583 291.954 177.219 291.278 178.925 291.278L181.944 288.992L187.575 291.278L189.018 291.278L189.018 297.907Z" fill="#2F2E41"/>
<path d="M226.852 292.311H232.225L234.782 271.623H226.851L226.852 292.311Z" fill="#FFB6B6"/>
<path d="M226.662 297.907L243.188 297.906V297.697C243.187 295.995 242.51 294.362 241.304 293.158C240.097 291.954 238.461 291.278 236.756 291.278L233.737 288.992L228.105 291.278L226.662 291.278L226.662 297.907Z" fill="#2F2E41"/>
<path d="M180.662 256.42C180.741 255.24 181.372 248.711 181.372 248.711L182.884 234.866L185.548 198.166L187.922 188.519L199.676 193.089L209.214 188.526L220.55 192.143L229.377 195.447C229.377 195.447 229.392 196.861 229.46 198.569C229.551 200.806 229.709 203.548 230.087 204.261C230.718 205.52 230.559 212.283 230.559 212.283C230.559 212.283 231.187 226.041 231.976 227.55C232.766 229.058 232.925 232.2 232.687 232.83C232.449 233.459 233.477 249.982 233.477 249.982C233.477 249.982 236.114 279.222 234.459 283.63C232.804 288.039 226.55 285.151 226.55 285.151C226.55 285.151 226.852 283.975 225.039 283.42C223.225 282.866 217.7 241.406 217.7 241.406C217.7 241.406 216.673 232.905 215.728 230.469C214.783 228.032 213.914 221.187 213.914 221.187C213.914 221.187 208.08 209.857 208.004 207.338C208.004 207.338 207.241 204.981 206.519 207.576C205.798 210.17 203.67 216.386 203.67 216.386L201.596 224.019L199.155 235.424L197.575 245.026C197.575 245.026 195.21 257.77 194.832 258.321C194.454 258.872 194.832 270.514 194.832 270.514C194.832 270.514 193.003 280.429 190.418 282.16C187.834 283.892 180.986 282.188 180.986 282.188C180.986 282.188 180.582 257.601 180.662 256.42Z" fill="#2F2E41"/>
<path d="M189.448 157.479L187.947 176.899L185.69 179.229C185.487 179.44 185.328 179.689 185.223 179.962C185.118 180.234 185.07 180.526 185.08 180.818C185.091 181.11 185.161 181.397 185.285 181.661C185.409 181.926 185.586 182.163 185.804 182.357L184.561 184.485L184.121 191.19C183.995 191.711 183.987 192.254 184.096 192.779C184.205 193.305 184.428 193.8 184.751 194.229C185.074 194.658 185.488 195.01 185.963 195.261C186.438 195.512 186.962 195.656 187.499 195.681L226.41 197.505C226.944 197.53 227.477 197.438 227.972 197.235C228.466 197.032 228.909 196.723 229.271 196.33C229.632 195.937 229.903 195.47 230.064 194.961C230.224 194.452 230.271 193.914 230.201 193.385L226.892 168.524V166.666L225.411 163.076L226.172 151.049L227.943 131.961L217.65 129.307L212.068 125.474L202.372 125.628L196.489 130.451L188.644 131.677L182.712 132.854L181.956 134.493L183.467 134.166L188.946 155.492L189.448 157.479Z" fill="#0EA5E9"/>
<path d="M207.004 122.872C213.312 122.872 218.426 117.768 218.426 111.472C218.426 105.175 213.312 100.071 207.004 100.071C200.695 100.071 195.581 105.175 195.581 111.472C195.581 117.768 200.695 122.872 207.004 122.872Z" fill="#FFB6B6"/>
<path d="M204.25 122.137L212.502 121.716C213.56 121.663 214.714 121.569 215.483 120.843C215.897 120.395 216.215 119.867 216.418 119.292C217.181 117.523 217.944 115.754 218.688 113.977C219.716 111.519 220.726 108.924 220.463 106.273C220.402 105.063 219.893 103.918 219.036 103.06C218.598 102.646 218.035 102.389 217.436 102.328C216.836 102.268 216.233 102.407 215.721 102.724C215.594 101.886 215.278 101.087 214.796 100.389C214.314 99.6907 213.679 99.1108 212.94 98.6933C211.446 97.8698 209.741 97.509 208.041 97.6567C205.575 97.8154 203.22 98.7417 201.309 100.305C200.771 100.8 200.197 101.254 199.591 101.664C199.286 101.867 198.943 102.006 198.583 102.073C198.222 102.139 197.852 102.132 197.495 102.051C197.141 101.956 196.833 101.737 196.628 101.434C196.423 101.13 196.336 100.763 196.381 100.4C195.8 100.834 195.401 101.468 195.263 102.179C195.125 102.891 195.258 103.628 195.634 104.247C195.206 104.426 194.738 104.491 194.277 104.437C193.816 104.382 193.377 104.21 193.002 103.936C192.601 104.135 192.245 104.415 191.959 104.759C191.672 105.102 191.46 105.502 191.338 105.932C191.215 106.362 191.183 106.813 191.245 107.256C191.307 107.699 191.461 108.125 191.697 108.505C191.933 108.885 192.246 109.212 192.616 109.464C192.986 109.717 193.404 109.89 193.845 109.971C194.285 110.053 194.738 110.042 195.174 109.939C195.61 109.836 196.02 109.643 196.377 109.373C196.878 110.073 196.691 111.024 196.626 111.882C196.561 112.74 196.791 113.806 197.62 114.043C198.74 114.364 199.647 112.859 200.813 112.875C201.1 112.898 201.377 112.992 201.62 113.148C201.862 113.303 202.062 113.517 202.202 113.768C202.477 114.274 202.665 114.822 202.759 115.389L204.25 122.09" fill="#2F2E41"/>
<path d="M526.024 224.643C526.024 222.878 525.43 221.445 524.701 221.442H325.887C325.154 221.445 324.563 222.878 324.56 224.643V297.314C324.56 297.478 324.499 297.636 324.389 297.757C324.278 297.879 324.127 297.955 323.963 297.97C323.43 298.022 322.896 298.069 322.362 298.113C322.349 298.113 322.336 298.116 322.323 298.116C322.032 298.143 321.742 298.163 321.452 298.186H321.448C321.299 297.91 321.151 297.632 321.005 297.351C320.956 297.257 320.93 297.152 320.93 297.045V220.49C320.93 220.003 320.95 219.512 320.983 219.028C321.03 218.363 321.113 217.701 321.23 217.045C321.788 213.985 323.049 211.914 324.481 211.907H526.103C526.312 211.909 526.519 211.952 526.71 212.036C526.992 212.16 527.246 212.338 527.46 212.559C527.749 212.86 527.997 213.198 528.195 213.564C529.017 215.198 529.49 216.985 529.585 218.81C529.585 218.83 529.588 218.85 529.588 218.87C529.634 219.403 529.657 219.947 529.654 220.49L529.7 227.548L529.73 231.758L529.819 244.965L529.852 249.655L529.997 297.807C529.997 297.982 529.928 298.149 529.804 298.273C529.68 298.396 529.512 298.466 529.337 298.466H526.684C526.509 298.466 526.341 298.396 526.217 298.273C526.094 298.149 526.024 297.982 526.024 297.807V224.643Z" fill="#E6E6E6"/>
<path d="M472 178.881H450.577C450.274 178.881 449.984 179.002 449.77 179.216C449.556 179.43 449.436 179.72 449.436 180.023V213.799H473.144V180.023C473.144 179.873 473.115 179.724 473.057 179.586C473 179.447 472.915 179.321 472.809 179.215C472.703 179.109 472.577 179.025 472.438 178.968C472.299 178.91 472.15 178.881 472 178.881ZM461.361 198.072C460.691 198.069 460.049 197.802 459.575 197.329C459.102 196.856 458.834 196.216 458.831 195.547V191.652C458.831 190.982 459.098 190.34 459.572 189.866C460.046 189.393 460.69 189.127 461.361 189.127C462.032 189.127 462.675 189.393 463.149 189.866C463.624 190.34 463.89 190.982 463.89 191.652V195.547C463.887 196.216 463.62 196.856 463.146 197.329C462.672 197.802 462.031 198.069 461.361 198.072Z" fill="#CCCCCC"/>
<path d="M449.363 212.719V215.978C449.363 216.147 449.43 216.309 449.55 216.428C449.67 216.547 449.832 216.615 450.001 216.615H472.579C472.748 216.614 472.91 216.547 473.03 216.427C473.149 216.308 473.217 216.147 473.218 215.978V212.719H449.363Z" fill="#3F3D56"/>
<path d="M507.474 126.168H415.901C415.114 126.17 414.36 126.482 413.803 127.037C413.247 127.593 412.934 128.345 412.933 129.131V190.806C412.933 191.592 413.246 192.345 413.803 192.9C414.359 193.456 415.114 193.768 415.901 193.769H507.474C508.261 193.768 509.015 193.456 509.572 192.9C510.128 192.345 510.441 191.592 510.442 190.806V129.131C510.44 128.345 510.127 127.593 509.571 127.037C509.015 126.482 508.261 126.17 507.474 126.168Z" fill="#E6E6E6"/>
<path d="M506.709 128.308H416.666C416.244 128.309 415.841 128.476 415.543 128.774C415.246 129.072 415.079 129.475 415.078 129.895V190.043C415.079 190.463 415.247 190.865 415.544 191.162C415.842 191.459 416.245 191.626 416.666 191.627H506.709C507.13 191.626 507.533 191.459 507.831 191.162C508.128 190.865 508.296 190.463 508.297 190.043V129.895C508.297 129.475 508.13 129.072 507.832 128.774C507.534 128.476 507.131 128.309 506.709 128.308Z" fill="white"/>
<path d="M489.17 217.749H435.599C435.453 217.749 435.308 217.716 435.175 217.653C435.043 217.59 434.926 217.499 434.834 217.385C434.742 217.271 434.676 217.139 434.641 216.996C434.607 216.854 434.605 216.706 434.635 216.563L435.466 212.622C435.513 212.402 435.635 212.204 435.81 212.062C435.986 211.92 436.204 211.842 436.43 211.841H488.339C488.565 211.842 488.784 211.92 488.959 212.062C489.135 212.204 489.256 212.402 489.303 212.622L490.135 216.563C490.165 216.706 490.163 216.854 490.128 216.996C490.094 217.139 490.028 217.271 489.936 217.385C489.843 217.499 489.727 217.59 489.594 217.653C489.462 217.716 489.317 217.749 489.17 217.749Z" fill="#CCCCCC"/>
<path d="M438.171 212.551H437.1C436.94 212.551 436.811 212.68 436.811 212.84V213.25C436.811 213.41 436.94 213.539 437.1 213.539H438.171C438.331 213.539 438.461 213.41 438.461 213.25V212.84C438.461 212.68 438.331 212.551 438.171 212.551Z" fill="#E6E6E6"/>
<path d="M441.471 212.551H440.4C440.24 212.551 440.111 212.68 440.111 212.84V213.25C440.111 213.41 440.24 213.539 440.4 213.539H441.471C441.631 213.539 441.761 213.41 441.761 213.25V212.84C441.761 212.68 441.631 212.551 441.471 212.551Z" fill="#E6E6E6"/>
<path d="M444.771 212.551H443.7C443.54 212.551 443.411 212.68 443.411 212.84V213.25C443.411 213.41 443.54 213.539 443.7 213.539H444.771C444.931 213.539 445.061 213.41 445.061 213.25V212.84C445.061 212.68 444.931 212.551 444.771 212.551Z" fill="#E6E6E6"/>
<path d="M448.071 212.551H447C446.84 212.551 446.71 212.68 446.71 212.84V213.25C446.71 213.41 446.84 213.539 447 213.539H448.071C448.231 213.539 448.36 213.41 448.36 213.25V212.84C448.36 212.68 448.231 212.551 448.071 212.551Z" fill="#E6E6E6"/>
<path d="M451.371 212.551H450.3C450.14 212.551 450.01 212.68 450.01 212.84V213.25C450.01 213.41 450.14 213.539 450.3 213.539H451.371C451.531 213.539 451.66 213.41 451.66 213.25V212.84C451.66 212.68 451.531 212.551 451.371 212.551Z" fill="#E6E6E6"/>
<path d="M454.671 212.551H453.6C453.44 212.551 453.31 212.68 453.31 212.84V213.25C453.31 213.41 453.44 213.539 453.6 213.539H454.671C454.831 213.539 454.96 213.41 454.96 213.25V212.84C454.96 212.68 454.831 212.551 454.671 212.551Z" fill="#E6E6E6"/>
<path d="M457.971 212.551H456.9C456.74 212.551 456.61 212.68 456.61 212.84V213.25C456.61 213.41 456.74 213.539 456.9 213.539H457.971C458.13 213.539 458.26 213.41 458.26 213.25V212.84C458.26 212.68 458.13 212.551 457.971 212.551Z" fill="#E6E6E6"/>
<path d="M461.27 212.551H460.199C460.04 212.551 459.91 212.68 459.91 212.84V213.25C459.91 213.41 460.04 213.539 460.199 213.539H461.27C461.43 213.539 461.56 213.41 461.56 213.25V212.84C461.56 212.68 461.43 212.551 461.27 212.551Z" fill="#E6E6E6"/>
<path d="M464.57 212.551H463.499C463.339 212.551 463.21 212.68 463.21 212.84V213.25C463.21 213.41 463.339 213.539 463.499 213.539H464.57C464.73 213.539 464.86 213.41 464.86 213.25V212.84C464.86 212.68 464.73 212.551 464.57 212.551Z" fill="#E6E6E6"/>
<path d="M467.87 212.551H466.799C466.639 212.551 466.51 212.68 466.51 212.84V213.25C466.51 213.41 466.639 213.539 466.799 213.539H467.87C468.03 213.539 468.16 213.41 468.16 213.25V212.84C468.16 212.68 468.03 212.551 467.87 212.551Z" fill="#E6E6E6"/>
<path d="M471.17 212.551H470.099C469.939 212.551 469.81 212.68 469.81 212.84V213.25C469.81 213.41 469.939 213.539 470.099 213.539H471.17C471.33 213.539 471.459 213.41 471.459 213.25V212.84C471.459 212.68 471.33 212.551 471.17 212.551Z" fill="#E6E6E6"/>
<path d="M474.47 212.551H473.399C473.239 212.551 473.109 212.68 473.109 212.84V213.25C473.109 213.41 473.239 213.539 473.399 213.539H474.47C474.63 213.539 474.759 213.41 474.759 213.25V212.84C474.759 212.68 474.63 212.551 474.47 212.551Z" fill="#E6E6E6"/>
<path d="M477.77 212.551H476.699C476.539 212.551 476.409 212.68 476.409 212.84V213.25C476.409 213.41 476.539 213.539 476.699 213.539H477.77C477.93 213.539 478.059 213.41 478.059 213.25V212.84C478.059 212.68 477.93 212.551 477.77 212.551Z" fill="#E6E6E6"/>
<path d="M481.07 212.551H479.999C479.839 212.551 479.709 212.68 479.709 212.84V213.25C479.709 213.41 479.839 213.539 479.999 213.539H481.07C481.23 213.539 481.359 213.41 481.359 213.25V212.84C481.359 212.68 481.23 212.551 481.07 212.551Z" fill="#E6E6E6"/>
<path d="M484.37 212.551H483.299C483.139 212.551 483.009 212.68 483.009 212.84V213.25C483.009 213.41 483.139 213.539 483.299 213.539H484.37C484.529 213.539 484.659 213.41 484.659 213.25V212.84C484.659 212.68 484.529 212.551 484.37 212.551Z" fill="#E6E6E6"/>
<path d="M487.669 212.551H486.598C486.439 212.551 486.309 212.68 486.309 212.84V213.25C486.309 213.41 486.439 213.539 486.598 213.539H487.669C487.829 213.539 487.959 213.41 487.959 213.25V212.84C487.959 212.68 487.829 212.551 487.669 212.551Z" fill="#E6E6E6"/>
<path d="M438.132 214.198H437.061C436.901 214.198 436.772 214.327 436.772 214.487V214.897C436.772 215.056 436.901 215.186 437.061 215.186H438.132C438.292 215.186 438.422 215.056 438.422 214.897V214.487C438.422 214.327 438.292 214.198 438.132 214.198Z" fill="#E6E6E6"/>
<path d="M441.432 214.198H440.361C440.201 214.198 440.072 214.327 440.072 214.487V214.897C440.072 215.056 440.201 215.186 440.361 215.186H441.432C441.592 215.186 441.722 215.056 441.722 214.897V214.487C441.722 214.327 441.592 214.198 441.432 214.198Z" fill="#E6E6E6"/>
<path d="M444.732 214.198H443.661C443.501 214.198 443.372 214.327 443.372 214.487V214.897C443.372 215.056 443.501 215.186 443.661 215.186H444.732C444.892 215.186 445.022 215.056 445.022 214.897V214.487C445.022 214.327 444.892 214.198 444.732 214.198Z" fill="#E6E6E6"/>
<path d="M448.032 214.198H446.961C446.801 214.198 446.671 214.327 446.671 214.487V214.897C446.671 215.056 446.801 215.186 446.961 215.186H448.032C448.192 215.186 448.321 215.056 448.321 214.897V214.487C448.321 214.327 448.192 214.198 448.032 214.198Z" fill="#E6E6E6"/>
<path d="M451.332 214.198H450.261C450.101 214.198 449.971 214.327 449.971 214.487V214.897C449.971 215.056 450.101 215.186 450.261 215.186H451.332C451.492 215.186 451.621 215.056 451.621 214.897V214.487C451.621 214.327 451.492 214.198 451.332 214.198Z" fill="#E6E6E6"/>
<path d="M454.632 214.198H453.561C453.401 214.198 453.271 214.327 453.271 214.487V214.897C453.271 215.056 453.401 215.186 453.561 215.186H454.632C454.792 215.186 454.921 215.056 454.921 214.897V214.487C454.921 214.327 454.792 214.198 454.632 214.198Z" fill="#E6E6E6"/>
<path d="M457.932 214.198H456.86C456.701 214.198 456.571 214.327 456.571 214.487V214.897C456.571 215.056 456.701 215.186 456.86 215.186H457.932C458.091 215.186 458.221 215.056 458.221 214.897V214.487C458.221 214.327 458.091 214.198 457.932 214.198Z" fill="#E6E6E6"/>
<path d="M461.231 214.198H460.16C460.001 214.198 459.871 214.327 459.871 214.487V214.897C459.871 215.056 460.001 215.186 460.16 215.186H461.231C461.391 215.186 461.521 215.056 461.521 214.897V214.487C461.521 214.327 461.391 214.198 461.231 214.198Z" fill="#E6E6E6"/>
<path d="M464.531 214.198H463.46C463.3 214.198 463.171 214.327 463.171 214.487V214.897C463.171 215.056 463.3 215.186 463.46 215.186H464.531C464.691 215.186 464.821 215.056 464.821 214.897V214.487C464.821 214.327 464.691 214.198 464.531 214.198Z" fill="#E6E6E6"/>
<path d="M467.831 214.198H466.76C466.6 214.198 466.471 214.327 466.471 214.487V214.897C466.471 215.056 466.6 215.186 466.76 215.186H467.831C467.991 215.186 468.121 215.056 468.121 214.897V214.487C468.121 214.327 467.991 214.198 467.831 214.198Z" fill="#E6E6E6"/>
<path d="M471.131 214.198H470.06C469.9 214.198 469.771 214.327 469.771 214.487V214.897C469.771 215.056 469.9 215.186 470.06 215.186H471.131C471.291 215.186 471.421 215.056 471.421 214.897V214.487C471.421 214.327 471.291 214.198 471.131 214.198Z" fill="#E6E6E6"/>
<path d="M474.431 214.198H473.36C473.2 214.198 473.07 214.327 473.07 214.487V214.897C473.07 215.056 473.2 215.186 473.36 215.186H474.431C474.591 215.186 474.72 215.056 474.72 214.897V214.487C474.72 214.327 474.591 214.198 474.431 214.198Z" fill="#E6E6E6"/>
<path d="M477.731 214.198H476.66C476.5 214.198 476.37 214.327 476.37 214.487V214.897C476.37 215.056 476.5 215.186 476.66 215.186H477.731C477.891 215.186 478.02 215.056 478.02 214.897V214.487C478.02 214.327 477.891 214.198 477.731 214.198Z" fill="#E6E6E6"/>
<path d="M481.031 214.198H479.96C479.8 214.198 479.67 214.327 479.67 214.487V214.897C479.67 215.056 479.8 215.186 479.96 215.186H481.031C481.191 215.186 481.32 215.056 481.32 214.897V214.487C481.32 214.327 481.191 214.198 481.031 214.198Z" fill="#E6E6E6"/>
<path d="M484.331 214.198H483.26C483.1 214.198 482.97 214.327 482.97 214.487V214.897C482.97 215.056 483.1 215.186 483.26 215.186H484.331C484.49 215.186 484.62 215.056 484.62 214.897V214.487C484.62 214.327 484.49 214.198 484.331 214.198Z" fill="#E6E6E6"/>
<path d="M487.631 214.198H486.559C486.4 214.198 486.27 214.327 486.27 214.487V214.897C486.27 215.056 486.4 215.186 486.559 215.186H487.631C487.79 215.186 487.92 215.056 487.92 214.897V214.487C487.92 214.327 487.79 214.198 487.631 214.198Z" fill="#E6E6E6"/>
<path d="M465.521 216.174H452.901C452.741 216.174 452.611 216.303 452.611 216.463V216.873C452.611 217.033 452.741 217.162 452.901 217.162H465.521C465.681 217.162 465.811 217.033 465.811 216.873V216.463C465.811 216.303 465.681 216.174 465.521 216.174Z" fill="#E6E6E6"/>
<path d="M502.183 136.595H417.929C417.842 136.593 417.759 136.557 417.697 136.494C417.636 136.432 417.602 136.348 417.602 136.26C417.602 136.173 417.636 136.089 417.697 136.027C417.759 135.964 417.842 135.928 417.929 135.926H502.183C502.271 135.928 502.354 135.964 502.415 136.027C502.476 136.089 502.511 136.173 502.511 136.26C502.511 136.348 502.476 136.432 502.415 136.494C502.354 136.557 502.271 136.593 502.183 136.595Z" fill="#CACACA"/>
<path d="M423.665 134.219C424.749 134.219 425.628 133.322 425.628 132.215C425.628 131.109 424.749 130.212 423.665 130.212C422.58 130.212 421.701 131.109 421.701 132.215C421.701 133.322 422.58 134.219 423.665 134.219Z" fill="#CCCCCC"/>
<path d="M430.448 134.219C431.532 134.219 432.412 133.322 432.412 132.215C432.412 131.109 431.532 130.212 430.448 130.212C429.364 130.212 428.484 131.109 428.484 132.215C428.484 133.322 429.364 134.219 430.448 134.219Z" fill="#CCCCCC"/>
<path d="M437.231 134.219C438.316 134.219 439.195 133.322 439.195 132.215C439.195 131.109 438.316 130.212 437.231 130.212C436.147 130.212 435.268 131.109 435.268 132.215C435.268 133.322 436.147 134.219 437.231 134.219Z" fill="#CCCCCC"/>
<path d="M498.099 130.708H493.281C493.185 130.71 493.094 130.749 493.027 130.817C492.96 130.885 492.923 130.977 492.923 131.072C492.923 131.168 492.96 131.259 493.027 131.327C493.094 131.395 493.185 131.435 493.281 131.436H498.099C498.195 131.435 498.286 131.395 498.352 131.327C498.419 131.259 498.457 131.168 498.457 131.072C498.457 130.977 498.419 130.885 498.352 130.817C498.286 130.749 498.195 130.71 498.099 130.708Z" fill="#CCCCCC"/>
<path d="M498.099 132.075H493.281C493.185 132.077 493.094 132.116 493.027 132.184C492.96 132.252 492.923 132.344 492.923 132.439C492.923 132.535 492.96 132.626 493.027 132.694C493.094 132.762 493.185 132.801 493.281 132.803H498.099C498.194 132.801 498.285 132.762 498.352 132.694C498.419 132.626 498.457 132.535 498.457 132.439C498.457 132.344 498.419 132.252 498.352 132.184C498.285 132.116 498.195 132.077 498.099 132.075Z" fill="#CCCCCC"/>
<path d="M498.099 133.44H493.281C493.185 133.442 493.094 133.481 493.027 133.549C492.96 133.617 492.923 133.709 492.923 133.804C492.923 133.9 492.96 133.991 493.027 134.059C493.094 134.127 493.185 134.167 493.281 134.168H498.099C498.195 134.167 498.286 134.127 498.352 134.059C498.419 133.991 498.457 133.9 498.457 133.804C498.457 133.709 498.419 133.617 498.352 133.549C498.286 133.481 498.195 133.442 498.099 133.44Z" fill="#CCCCCC"/>
<path d="M466.859 154.814H456.331C455.54 154.814 454.899 155.454 454.899 156.243C454.899 157.033 455.54 157.672 456.331 157.672H466.859C467.65 157.672 468.291 157.033 468.291 156.243C468.291 155.454 467.65 154.814 466.859 154.814Z" fill="#0EA5E9"/>
<path d="M473.66 160.531H449.53C448.739 160.531 448.098 161.17 448.098 161.96C448.098 162.749 448.739 163.389 449.53 163.389H473.66C474.451 163.389 475.092 162.749 475.092 161.96C475.092 161.17 474.451 160.531 473.66 160.531Z" fill="#E6E6E6"/>
<path d="M473.66 166.247H449.53C448.739 166.247 448.098 166.887 448.098 167.676C448.098 168.465 448.739 169.105 449.53 169.105H473.66C474.451 169.105 475.092 168.465 475.092 167.676C475.092 166.887 474.451 166.247 473.66 166.247Z" fill="#E6E6E6"/>
<path d="M311.092 255.301L306.239 252.984L312.906 232.737L320.069 236.156L311.092 255.301Z" fill="#FFB6B6"/>
<path d="M343.63 252.037C343.277 252.257 342.924 252.474 342.567 252.691C341.858 253.126 341.141 253.553 340.425 253.972C340.065 254.182 339.701 254.392 339.341 254.599V254.609L339.32 254.613L339.313 254.616L338.764 254.752L337.976 252.674L337.612 251.717L337.099 250.361L336.158 247.881L331.202 234.823L338.906 232.926L339.195 234.104H339.199L339.341 234.687L342.033 245.582L342.582 247.81L342.6 247.877L342.931 249.208L343.216 250.361L343.534 251.649L343.63 252.037Z" fill="#FFB6B6"/>
<path d="M389.586 206.179C389.098 206.962 388.599 207.741 388.096 208.513C387.162 209.95 386.203 211.367 385.219 212.761C385.219 212.765 385.216 212.765 385.212 212.768C384.638 213.299 384.004 213.761 383.323 214.145C383.294 214.167 383.262 214.181 383.234 214.199C382.732 214.476 382.198 214.689 381.644 214.836C381.444 214.885 381.241 214.935 381.041 214.985C380.321 215.156 379.608 215.302 378.899 215.43C377.637 215.654 376.389 215.814 375.148 215.914C375.048 215.924 374.949 215.932 374.849 215.939C369.747 216.312 364.781 215.711 359.598 214.725C357.038 214.241 354.425 213.661 351.719 213.06C350.835 212.861 349.948 212.665 349.049 212.47C348.982 212.455 348.91 212.437 348.839 212.423C347.556 212.142 346.251 211.865 344.914 211.591C343.231 211.246 341.495 210.911 339.691 210.594L339.82 213.131C339.926 215.083 340.333 217.007 341.025 218.835C341.795 221.084 342.404 222.863 341.117 226.567L340.497 228.36C340.818 229.251 340.929 230.203 340.819 231.144C340.71 232.084 340.384 232.986 339.866 233.779L339.741 233.968L344.914 247.03L345.249 247.877H342.6L339.342 247.88H333.82L325.852 231.925L325.471 231.164V231.125L326.294 200.464C326.305 200.194 326.326 199.92 326.362 199.65C326.507 198.42 326.896 197.232 327.506 196.154C328.117 195.077 328.936 194.131 329.916 193.373C330.856 192.64 331.931 192.101 333.081 191.787C334.231 191.473 335.432 191.391 336.615 191.544L339.342 191.896L344.914 192.615L348.839 193.124L348.917 193.135L360.493 194.629L361.323 191.249L361.477 191.192L366.35 189.409L383.205 183.243L383.248 183.229L384.356 182.823L384.488 183.037C384.528 183.101 384.567 183.165 384.602 183.229C385.698 185.19 386.591 187.257 387.265 189.399C388.4 192.897 389.335 196.458 390.064 200.062C390.096 200.219 390.125 200.361 390.15 200.489L390.16 200.528C390.171 200.589 390.178 200.628 390.182 200.639C390.516 202.504 390.309 204.426 389.586 206.179Z" fill="#2F2E41"/>
<path d="M390.298 194.879C390.244 194.652 390.177 194.421 390.105 194.196C389.539 192.499 388.88 190.833 388.13 189.208C387.289 187.358 386.28 185.376 385.079 183.23C384.498 182.191 383.872 181.111 383.203 179.989C382.868 179.427 382.52 178.854 382.159 178.27C382.145 178.243 382.129 178.217 382.113 178.192L382.009 178.021L365.332 180.248L359.122 181.078L358.751 184.166L358.662 184.931C358.659 184.931 358.659 184.931 358.662 184.935L358.413 187.02V187.023L358.081 189.777L358.053 189.774L348.837 188.582L339.34 187.354L334.239 186.696C333.057 186.542 331.856 186.625 330.706 186.939C329.556 187.253 328.48 187.792 327.54 188.525C326.56 189.283 325.741 190.229 325.131 191.306C324.521 192.384 324.132 193.572 323.986 194.801C323.954 195.05 323.933 195.306 323.922 195.559L319.109 206.942C316.229 213.749 314.395 220.951 313.669 228.305L310.14 239.566L310.642 239.612L318.122 240.306L320.097 240.491L324.446 234.154C324.941 233.432 325.412 232.688 325.851 231.927C326.572 230.683 327.214 229.395 327.772 228.07L337.18 205.725C337.907 205.849 338.627 205.968 339.34 206.081C342.638 206.614 345.804 207.05 348.837 207.386C358.702 208.486 367.243 208.571 374.847 207.639C376.983 207.379 379.047 207.038 381.04 206.614C381.77 206.461 382.492 206.296 383.204 206.12C383.371 206.081 383.535 206.041 383.699 205.999C385.172 205.62 386.527 204.877 387.639 203.841C388.75 202.804 389.584 201.505 390.062 200.064C390.634 198.393 390.716 196.595 390.298 194.879Z" fill="#2F2E41"/>
<path d="M312.642 251.995L307.391 249.483L306.568 249.088L305.252 252.311L296.069 254.329C295.615 254.428 295.205 254.67 294.898 255.019C294.591 255.367 294.404 255.805 294.364 256.267C294.325 256.729 294.434 257.192 294.677 257.588C294.919 257.984 295.282 258.292 295.712 258.467L304.685 262.121L307.534 259.563L306.835 262.997L310.215 264.374L313.919 252.607L312.642 251.995Z" fill="#2F2E41"/>
<path d="M344.914 247.03L345.249 247.877H344.914V247.03Z" fill="#2F2E41"/>
<path d="M343.085 248.058L337.583 249.96L336.719 250.258L338.057 253.472L332.954 261.355C332.701 261.745 332.58 262.205 332.608 262.668C332.636 263.131 332.811 263.573 333.109 263.929C333.407 264.286 333.811 264.538 334.262 264.649C334.713 264.76 335.188 264.724 335.618 264.546L344.57 260.841L344.79 257.023L346.714 259.954L350.087 258.559L344.423 247.596L343.085 248.058Z" fill="#2F2E41"/>
<path d="M309.689 130.329C309.95 130.836 310.319 131.28 310.771 131.629C311.222 131.979 311.745 132.225 312.302 132.351C312.859 132.477 313.437 132.48 313.996 132.359C314.554 132.238 315.079 131.996 315.533 131.651L327.103 139.317L327.125 132.114L316.135 125.938C315.503 125.215 314.627 124.748 313.673 124.625C312.719 124.503 311.753 124.735 310.958 125.276C310.164 125.817 309.596 126.63 309.362 127.562C309.128 128.493 309.244 129.477 309.689 130.329Z" fill="#FFB6B6"/>
<path d="M318.333 133.658L323.731 127.528L345.711 140.552L374.848 137.889C376.288 137.757 377.74 137.944 379.1 138.435C380.46 138.926 381.694 139.71 382.717 140.731C383.739 141.753 384.523 142.986 385.014 144.344C385.505 145.701 385.69 147.15 385.557 148.588C385.314 151.184 384.048 153.577 382.039 155.243C380.029 156.909 377.44 157.711 374.838 157.473L342.023 154.442L318.333 133.658Z" fill="#CCCCCC"/>
<path d="M385.959 133.752L385.908 133.689C381.81 133.285 377.681 134.077 374.024 135.968C370.367 137.859 367.338 140.769 365.305 144.344L362.832 148.691C354.834 158.451 360.646 165.181 360.994 166.182L358.218 178.959L358.84 183.235L359.151 184.505L390.842 201.032C392.646 192.38 390.901 185.007 384.328 179.374L390.688 159.623C392.098 155.256 392.404 150.609 391.579 146.095C390.754 141.581 388.823 137.341 385.959 133.752Z" fill="#CCCCCC"/>
<path d="M360.761 229.706H350.595C350.036 229.705 349.496 229.504 349.074 229.138C348.652 228.772 348.376 228.266 348.298 227.713C347.67 223.103 347.67 218.43 348.298 213.82C348.375 213.274 348.645 212.773 349.059 212.408C349.473 212.043 350.004 211.837 350.556 211.828C353.755 210.397 357.199 210.397 360.796 211.827C361.131 211.832 361.461 211.909 361.762 212.055C362.064 212.2 362.33 212.409 362.542 212.668C362.763 212.937 362.922 213.253 363.005 213.59C363.089 213.928 363.097 214.281 363.027 214.622C362.21 218.678 362.21 222.855 363.027 226.911C363.097 227.252 363.089 227.605 363.005 227.943C362.922 228.281 362.763 228.596 362.542 228.865C362.327 229.128 362.055 229.34 361.747 229.486C361.438 229.631 361.102 229.706 360.761 229.706Z" fill="#0EA5E9"/>
<path d="M359.696 217.125H351.14C351.07 217.125 351 217.112 350.934 217.085C350.869 217.059 350.809 217.02 350.759 216.97C350.709 216.92 350.669 216.861 350.642 216.796C350.615 216.731 350.601 216.661 350.601 216.591C350.601 216.52 350.615 216.451 350.642 216.385C350.669 216.32 350.709 216.261 350.759 216.212C350.809 216.162 350.869 216.123 350.934 216.096C351 216.07 351.07 216.056 351.14 216.057H359.696C359.767 216.056 359.837 216.07 359.902 216.096C359.968 216.123 360.027 216.162 360.077 216.212C360.127 216.261 360.167 216.32 360.194 216.385C360.222 216.451 360.236 216.52 360.236 216.591C360.236 216.661 360.222 216.731 360.194 216.796C360.167 216.861 360.127 216.92 360.077 216.97C360.027 217.02 359.968 217.059 359.902 217.085C359.837 217.112 359.767 217.125 359.696 217.125Z" fill="white"/>
<path d="M359.696 221.394H351.14C351.07 221.395 351 221.382 350.934 221.355C350.869 221.328 350.809 221.289 350.759 221.24C350.709 221.19 350.669 221.131 350.642 221.066C350.615 221.001 350.601 220.931 350.601 220.861C350.601 220.79 350.615 220.72 350.642 220.655C350.669 220.59 350.709 220.531 350.759 220.482C350.809 220.432 350.869 220.393 350.934 220.366C351 220.34 351.07 220.326 351.14 220.327H359.696C359.767 220.326 359.837 220.34 359.902 220.366C359.968 220.393 360.027 220.432 360.077 220.482C360.127 220.531 360.167 220.59 360.194 220.655C360.222 220.72 360.236 220.79 360.236 220.861C360.236 220.931 360.222 221.001 360.194 221.066C360.167 221.131 360.127 221.19 360.077 221.24C360.027 221.289 359.968 221.328 359.902 221.355C359.837 221.382 359.767 221.395 359.696 221.394Z" fill="white"/>
<path d="M359.696 225.664H351.14C351.07 225.665 351 225.651 350.934 225.625C350.869 225.598 350.809 225.559 350.759 225.51C350.709 225.46 350.669 225.401 350.642 225.336C350.614 225.271 350.6 225.201 350.6 225.13C350.6 225.06 350.614 224.99 350.642 224.925C350.669 224.86 350.709 224.801 350.759 224.751C350.809 224.702 350.869 224.662 350.934 224.636C351 224.609 351.07 224.596 351.14 224.597H359.696C359.767 224.596 359.837 224.609 359.902 224.636C359.968 224.662 360.027 224.702 360.078 224.751C360.128 224.801 360.168 224.86 360.195 224.925C360.222 224.99 360.236 225.06 360.236 225.13C360.236 225.201 360.222 225.271 360.195 225.336C360.168 225.401 360.128 225.46 360.078 225.51C360.027 225.559 359.968 225.598 359.902 225.625C359.837 225.651 359.767 225.665 359.696 225.664Z" fill="white"/>
<path d="M311.553 133.845H301.388C300.828 133.845 300.288 133.643 299.866 133.277C299.444 132.911 299.169 132.405 299.09 131.853C298.462 127.243 298.462 122.569 299.09 117.959C299.168 117.413 299.438 116.913 299.852 116.548C300.266 116.183 300.796 115.977 301.349 115.967C304.547 114.536 307.991 114.536 311.588 115.967C311.923 115.971 312.253 116.049 312.555 116.194C312.856 116.339 313.122 116.549 313.335 116.808C313.556 117.077 313.714 117.392 313.798 117.73C313.881 118.068 313.889 118.42 313.819 118.761C313.003 122.817 313.003 126.995 313.819 131.051C313.889 131.392 313.881 131.744 313.798 132.082C313.714 132.42 313.556 132.735 313.335 133.004C313.119 133.268 312.847 133.48 312.539 133.625C312.231 133.771 311.894 133.846 311.553 133.845Z" fill="#0EA5E9"/>
<path d="M310.488 121.264H301.932C301.862 121.264 301.792 121.251 301.726 121.225C301.661 121.198 301.601 121.159 301.551 121.109C301.501 121.06 301.461 121.001 301.434 120.935C301.407 120.87 301.393 120.801 301.393 120.73C301.393 120.66 301.407 120.59 301.434 120.525C301.461 120.46 301.501 120.401 301.551 120.351C301.601 120.301 301.661 120.262 301.726 120.236C301.792 120.209 301.862 120.196 301.932 120.196H310.488C310.559 120.196 310.629 120.209 310.694 120.236C310.76 120.262 310.819 120.301 310.869 120.351C310.92 120.401 310.959 120.46 310.987 120.525C311.014 120.59 311.028 120.66 311.028 120.73C311.028 120.801 311.014 120.87 310.987 120.935C310.959 121.001 310.92 121.06 310.869 121.109C310.819 121.159 310.76 121.198 310.694 121.225C310.629 121.251 310.559 121.264 310.488 121.264Z" fill="white"/>
<path d="M310.488 125.534H301.932C301.862 125.534 301.792 125.521 301.726 125.494C301.661 125.468 301.601 125.429 301.551 125.379C301.501 125.329 301.461 125.27 301.434 125.205C301.407 125.14 301.393 125.07 301.393 125C301.393 124.929 301.407 124.86 301.434 124.795C301.461 124.73 301.501 124.67 301.551 124.621C301.601 124.571 301.661 124.532 301.726 124.505C301.792 124.479 301.862 124.466 301.932 124.466H310.488C310.559 124.466 310.629 124.479 310.694 124.505C310.76 124.532 310.819 124.571 310.869 124.621C310.92 124.67 310.959 124.73 310.987 124.795C311.014 124.86 311.028 124.929 311.028 125C311.028 125.07 311.014 125.14 310.987 125.205C310.959 125.27 310.92 125.329 310.869 125.379C310.819 125.429 310.76 125.468 310.694 125.494C310.629 125.521 310.559 125.534 310.488 125.534Z" fill="white"/>
<path d="M310.488 129.803H301.932C301.862 129.804 301.792 129.791 301.726 129.764C301.661 129.738 301.601 129.699 301.551 129.649C301.501 129.599 301.461 129.54 301.434 129.475C301.407 129.41 301.393 129.34 301.393 129.27C301.393 129.199 301.407 129.129 301.434 129.064C301.461 128.999 301.501 128.94 301.551 128.891C301.601 128.841 301.661 128.802 301.726 128.775C301.792 128.749 301.862 128.735 301.932 128.736H310.488C310.559 128.735 310.629 128.749 310.694 128.775C310.76 128.802 310.819 128.841 310.87 128.891C310.92 128.94 310.96 128.999 310.987 129.064C311.014 129.129 311.028 129.199 311.028 129.27C311.028 129.34 311.014 129.41 310.987 129.475C310.96 129.54 310.92 129.599 310.87 129.649C310.819 129.699 310.76 129.738 310.694 129.764C310.629 129.791 310.559 129.804 310.488 129.803Z" fill="white"/>
<path d="M133.1 159.881H122.935C122.376 159.881 121.836 159.679 121.414 159.313C120.992 158.947 120.716 158.441 120.638 157.889C120.01 153.279 120.01 148.605 120.638 143.995C120.715 143.449 120.985 142.949 121.399 142.584C121.813 142.219 122.344 142.013 122.896 142.003C126.094 140.572 129.539 140.573 133.135 142.003C133.47 142.008 133.8 142.085 134.102 142.23C134.404 142.376 134.67 142.585 134.882 142.844C135.103 143.113 135.261 143.428 135.345 143.766C135.429 144.104 135.436 144.456 135.367 144.797C134.55 148.853 134.55 153.031 135.367 157.087C135.436 157.428 135.429 157.78 135.345 158.118C135.261 158.456 135.103 158.771 134.882 159.04C134.666 159.304 134.394 159.516 134.086 159.661C133.778 159.807 133.441 159.882 133.1 159.881Z" fill="#0EA5E9"/>
<path d="M132.036 147.3H123.48C123.409 147.301 123.339 147.287 123.274 147.261C123.208 147.234 123.149 147.195 123.099 147.145C123.049 147.096 123.009 147.037 122.982 146.972C122.954 146.907 122.94 146.837 122.94 146.766C122.94 146.696 122.954 146.626 122.982 146.561C123.009 146.496 123.049 146.437 123.099 146.387C123.149 146.338 123.208 146.298 123.274 146.272C123.339 146.245 123.409 146.232 123.48 146.233H132.036C132.106 146.232 132.176 146.245 132.242 146.272C132.307 146.298 132.367 146.338 132.417 146.387C132.467 146.437 132.507 146.496 132.534 146.561C132.561 146.626 132.575 146.696 132.575 146.766C132.575 146.837 132.561 146.907 132.534 146.972C132.507 147.037 132.467 147.096 132.417 147.145C132.367 147.195 132.307 147.234 132.242 147.261C132.176 147.287 132.106 147.301 132.036 147.3Z" fill="white"/>
<path d="M132.036 151.57H123.48C123.409 151.571 123.339 151.557 123.274 151.531C123.208 151.504 123.149 151.465 123.099 151.415C123.049 151.366 123.009 151.307 122.982 151.242C122.954 151.176 122.94 151.107 122.94 151.036C122.94 150.966 122.954 150.896 122.982 150.831C123.009 150.766 123.049 150.707 123.099 150.657C123.149 150.607 123.208 150.568 123.274 150.542C123.339 150.515 123.409 150.502 123.48 150.502H132.036C132.106 150.502 132.176 150.515 132.242 150.542C132.307 150.568 132.367 150.607 132.417 150.657C132.467 150.707 132.507 150.766 132.534 150.831C132.561 150.896 132.575 150.966 132.575 151.036C132.575 151.107 132.561 151.176 132.534 151.242C132.507 151.307 132.467 151.366 132.417 151.415C132.367 151.465 132.307 151.504 132.242 151.531C132.176 151.557 132.106 151.571 132.036 151.57Z" fill="white"/>
<path d="M132.036 155.84H123.48C123.409 155.84 123.339 155.827 123.274 155.801C123.208 155.774 123.149 155.735 123.098 155.685C123.048 155.636 123.008 155.576 122.981 155.511C122.954 155.446 122.94 155.376 122.94 155.306C122.94 155.235 122.954 155.166 122.981 155.101C123.008 155.035 123.048 154.976 123.098 154.927C123.149 154.877 123.208 154.838 123.274 154.811C123.339 154.785 123.409 154.772 123.48 154.772H132.036C132.106 154.772 132.176 154.785 132.242 154.811C132.307 154.838 132.367 154.877 132.417 154.927C132.467 154.976 132.507 155.035 132.534 155.101C132.562 155.166 132.576 155.235 132.576 155.306C132.576 155.376 132.562 155.446 132.534 155.511C132.507 155.576 132.467 155.636 132.417 155.685C132.367 155.735 132.307 155.774 132.242 155.801C132.176 155.827 132.106 155.84 132.036 155.84Z" fill="white"/>
<path d="M363.739 216.736C364.231 216.446 364.653 216.052 364.976 215.582C365.299 215.111 365.514 214.576 365.607 214.013C365.7 213.45 365.669 212.874 365.514 212.325C365.36 211.776 365.087 211.267 364.715 210.835L371.696 198.853L364.491 199.258L358.966 210.575C358.28 211.247 357.864 212.148 357.799 213.106C357.733 214.063 358.022 215.012 358.611 215.771C359.199 216.531 360.046 217.049 360.991 217.226C361.936 217.404 362.914 217.23 363.739 216.736Z" fill="#FFB6B6"/>
<path d="M366.556 207.927L360.105 202.912L371.827 180.24L367.435 151.368C367.218 149.941 367.318 148.483 367.729 147.099C368.14 145.715 368.85 144.439 369.811 143.36C370.772 142.281 371.959 141.426 373.288 140.856C374.617 140.287 376.055 140.016 377.5 140.063C380.111 140.152 382.58 141.271 384.365 143.174C386.15 145.077 387.106 147.61 387.023 150.216L385.938 183.09L366.556 207.927Z" fill="#CCCCCC"/>
<path d="M54.7721 201.732C55.1784 201.325 55.4902 200.833 55.6856 200.292C55.8809 199.751 55.9551 199.174 55.9029 198.602C55.8506 198.029 55.6732 197.475 55.3832 196.978C55.0932 196.481 54.6975 196.054 54.2241 195.727L60.4978 164.625L53.5697 166.845L48.5479 196.928C48.0492 197.758 47.8729 198.742 48.0525 199.694C48.232 200.645 48.755 201.497 49.5222 202.089C50.2894 202.682 51.2475 202.972 52.2151 202.906C53.1827 202.841 54.0925 202.423 54.7721 201.732Z" fill="#9E616A"/>
<path d="M64.0356 135.929L59.737 132.691C59.737 132.691 55.945 132.423 55.2734 139.248C54.6018 146.073 53.2227 159.375 53.2227 159.375L46.6451 189.782L55.7504 191.777L62.7955 158.962L67.0219 149.218L64.0356 135.929Z" fill="#CCCCCC"/>
<path d="M56.9489 185.581L81.1716 185.178L83.1903 168.657H56.9489V185.581Z" fill="#9E616A"/>
<path d="M78.7491 287.243H84.341L87.0012 265.715L78.748 265.716L78.7491 287.243Z" fill="#9E616A"/>
<path d="M43.7167 287.76L49.3086 287.721L51.8176 266.175L44.545 267.84L43.7167 287.76Z" fill="#9E616A"/>
<path d="M61.2063 154.43L59.9393 157.718L60.1925 161.006L84.9902 169.579L83.76 155.189L80.9724 151.901L61.2063 154.43Z" fill="#FFB6B6"/>
<path d="M71.8448 124.841C76.7362 124.841 80.7015 120.883 80.7015 116.001C80.7015 111.119 76.7362 107.161 71.8448 107.161C66.9533 107.161 62.988 111.119 62.988 116.001C62.988 120.883 66.9533 124.841 71.8448 124.841Z" fill="#9E616A"/>
<path d="M77.3622 284.49L86.2019 283.963V287.743L94.6061 293.536C95.0212 293.823 95.3338 294.234 95.4983 294.71C95.6628 295.185 95.6706 295.701 95.5204 296.182C95.3703 296.663 95.0702 297.083 94.6638 297.381C94.2575 297.68 93.7662 297.841 93.2618 297.841H82.7378L80.9238 294.102L80.2155 297.841H76.2476L77.3622 284.49Z" fill="#2F2E41"/>
<path d="M41.8038 285.02L50.6396 284.432L50.6661 288.212L59.1107 293.946C59.5278 294.229 59.8433 294.638 60.0112 295.113C60.179 295.587 60.1904 296.103 60.0436 296.585C59.8969 297.067 59.5997 297.489 59.1955 297.79C58.7912 298.091 58.3011 298.256 57.7967 298.259L47.2729 298.333L45.4328 294.606L44.7507 298.35L40.7829 298.378L41.8038 285.02Z" fill="#2F2E41"/>
<path d="M41.9767 271.254L46.0485 238.769L50.8931 204.519C47.3453 197.943 55.3339 177.522 55.3339 177.522L56.4616 177.576L81.9844 182.382L81.9789 182.358C87.1992 196.569 88.9287 203.589 88.6426 218.722L87.6142 273.123H87.9368C88.4722 273.123 88.9856 273.336 89.3642 273.713C89.7427 274.091 89.9554 274.604 89.9554 275.138C89.9554 275.672 89.7427 276.185 89.3642 276.563C88.9856 276.94 88.4722 277.153 87.9368 277.153H77.844C77.5787 277.153 77.3158 277.101 77.0705 277C76.8252 276.899 76.6023 276.751 76.4145 276.564C76.2266 276.377 76.0777 276.154 75.976 275.91C75.8743 275.665 75.822 275.403 75.822 275.138C75.822 274.873 75.8743 274.611 75.976 274.366C76.0777 274.122 76.2266 273.899 76.4145 273.712C76.6023 273.525 76.8252 273.377 77.0705 273.276C77.3158 273.175 77.5787 273.123 77.844 273.123H78.1043L68.8403 208.348L60.9859 235.546L52.1042 271.005C55.3339 270.199 54.8324 272.066 54.8324 273.123C54.8324 273.658 54.6198 274.17 54.2412 274.548C53.8627 274.926 53.3492 275.138 52.8139 275.138H42.7211C42.2517 275.139 41.7968 274.976 41.4349 274.677C41.073 274.379 40.8267 273.964 40.7385 273.504C40.6503 273.043 40.7257 272.567 40.9517 272.156C41.1778 271.746 41.5402 271.427 41.9767 271.254Z" fill="#2F2E41"/>
<path d="M53.3466 178.58L54.1541 170.521C54.2379 170.193 54.4239 169.899 54.6853 169.682C54.9468 169.465 55.2703 169.337 55.6095 169.315C55.9459 165.476 57.3613 148.914 57.4459 148.192L57.4492 148.161L58.0928 134.438C58.1162 133.94 58.3227 133.467 58.6729 133.111C59.0231 132.755 59.4925 132.54 59.9913 132.508L63.3909 132.286C63.4375 132.285 63.4817 132.265 63.5141 132.231C63.5466 132.198 63.5647 132.153 63.5647 132.107C63.5647 131.732 63.6387 131.361 63.7823 131.015C63.926 130.669 64.1366 130.354 64.402 130.089C64.6675 129.824 64.9827 129.614 65.3295 129.471C65.6764 129.327 66.0481 129.253 66.4235 129.253H76.4886C77.1405 129.254 77.7699 129.491 78.2587 129.922C78.7474 130.352 79.062 130.946 79.1432 131.592C79.1477 131.636 79.1688 131.677 79.2023 131.707C79.2358 131.737 79.2793 131.753 79.3241 131.752H79.3253C80.4689 131.728 81.5831 132.114 82.4657 132.841C83.3483 133.567 83.9408 134.585 84.1357 135.71C85.5117 143.701 88.2693 161.837 86.9059 171.919C86.4313 175.429 87.4544 172.649 87.6339 175.586C87.6518 175.87 87.6133 176.154 87.5208 176.423C87.4282 176.692 87.2835 176.94 87.0947 177.153C87.4811 177.293 87.7966 177.58 87.9725 177.951C88.1485 178.322 88.1708 178.747 88.0346 179.134L88.2115 179.09C88.1597 179.296 88.0678 179.489 87.9413 179.659C87.8147 179.828 87.6558 179.972 87.4738 180.08C87.2917 180.189 87.09 180.26 86.8802 180.291C86.6704 180.322 86.4565 180.311 86.2509 180.259L59.9184 183.821C59.0535 183.603 53.1286 179.443 53.3466 178.58Z" fill="#CCCCCC"/>
<path d="M123.711 145.815C123.546 146.366 123.262 146.874 122.879 147.303C122.496 147.733 122.023 148.073 121.494 148.301C120.965 148.528 120.392 148.637 119.817 148.62C119.241 148.602 118.676 148.459 118.161 148.2L107.981 157.473L106.63 150.337L116.51 142.648C117.003 141.815 117.786 141.19 118.709 140.894C119.632 140.597 120.632 140.649 121.52 141.04C122.407 141.43 123.12 142.132 123.524 143.012C123.928 143.892 123.994 144.889 123.711 145.815Z" fill="#9E616A"/>
<path d="M88.2784 138.727C88.2784 138.727 84.7287 130.72 80.2454 132.312C75.7621 133.903 78.077 141.672 78.077 141.672L94.9209 167.005C94.9209 167.005 119.216 151.45 116.262 151.34C113.307 151.23 112.424 145.867 112.424 145.867L99.5833 152.27L99.1488 149.991L98.4525 150.686L96.6556 149.274L88.2784 138.727Z" fill="#CCCCCC"/>
<path d="M378.653 129.931C385.482 129.931 391.018 124.406 391.018 117.59C391.018 110.774 385.482 105.248 378.653 105.248C371.824 105.248 366.288 110.774 366.288 117.59C366.288 124.406 371.824 129.931 378.653 129.931Z" fill="#FFB6B6"/>
<path d="M418.337 135.75C416.91 137.769 414.828 139.232 412.443 139.893C411.488 140.176 410.503 140.343 409.508 140.39C409.386 139.267 409.091 138.17 408.636 137.136C408.682 138.237 408.529 139.336 408.183 140.382C406.69 140.298 405.229 139.907 403.893 139.235C402.581 138.576 401.441 137.621 400.563 136.446C399.685 135.27 399.093 133.907 398.835 132.464C398.312 129.088 399.845 125.773 400.399 122.402C400.956 119.032 399.911 114.763 396.605 113.877C394.088 113.202 394.37 113.494 392.277 115.045C394.454 118.257 386.413 130.031 383.123 129.004C381.262 128.424 380.071 126.72 379.687 126.72C377.101 131.167 381.971 138.659 377.063 140.215L377.467 139.811C380.43 136.174 374.237 128.476 377.2 124.839C378.026 123.821 378.906 122.616 378.662 121.329C378.431 120.105 376.485 119.458 375.916 120.463C376.941 118.121 375.428 114.994 372.923 114.392C370.698 113.857 370.738 114.517 368.506 114.803C368.36 113.84 368.087 112.901 367.694 112.009C367.735 112.97 367.623 113.931 367.361 114.857C366.572 114.841 365.811 114.566 365.195 114.075C363.374 112.61 363.743 109.534 365.368 107.857C366.995 106.179 369.413 105.575 371.72 105.184C372.39 100.524 385.273 100.038 386.98 104.694C387.707 101.217 392.069 99.4123 395.458 100.491C398.848 101.57 401.2 104.73 402.439 108.06C403.677 111.387 404.023 114.968 404.786 118.435C405.549 121.902 406.838 125.433 409.493 127.796C412.148 130.156 416.474 130.938 419.271 128.745C419.677 129.904 419.805 131.142 419.643 132.359C419.481 133.576 419.033 134.738 418.337 135.75Z" fill="#2F2E41"/>
<path d="M534.347 163.914L532.616 172.583C532.485 173.246 532.349 173.92 532.201 174.589C530.754 174.29 529.254 174.373 527.849 174.832C528.963 176.421 529.962 178.088 530.837 179.82C529.746 183.175 528.145 186.276 525.466 188.519C523.676 189.983 521.538 190.963 519.259 191.363C516.979 191.763 514.635 191.57 512.452 190.803L512.529 190.459C509.648 184.879 511.213 177.844 514.794 172.69C516.621 170.147 518.785 167.864 521.227 165.903C523.646 163.891 526.26 162.086 528.851 160.305C529.433 159.905 530.121 159.688 530.827 159.681C531.533 159.674 532.225 159.877 532.815 160.264C533.405 160.652 533.866 161.206 534.139 161.856C534.412 162.506 534.484 163.223 534.347 163.914Z" fill="#E4E4E4"/>
<path d="M513.069 211.661C512.34 206.363 511.591 200.998 512.102 195.644C512.556 190.888 514.009 186.244 516.969 182.435C518.539 180.418 520.451 178.689 522.617 177.327C523.182 176.972 523.701 177.865 523.139 178.219C519.392 180.583 516.493 184.073 514.861 188.188C513.059 192.763 512.769 197.751 513.082 202.611C513.27 205.55 513.668 208.469 514.069 211.386C514.102 211.518 514.082 211.657 514.015 211.775C513.948 211.894 513.838 211.982 513.708 212.021C513.575 212.057 513.434 212.039 513.315 211.972C513.196 211.904 513.108 211.792 513.071 211.661L513.069 211.661Z" fill="#F2F2F2"/>
<path d="M554.294 298.818L0.705911 299C0.519045 298.999 0.340021 298.925 0.208078 298.793C0.0761348 298.661 0.00203705 298.482 0.00203705 298.295C0.00203705 298.109 0.0761348 297.93 0.208078 297.798C0.340021 297.666 0.519045 297.591 0.705911 297.591L554.294 297.409C554.481 297.409 554.66 297.484 554.792 297.616C554.924 297.748 554.998 297.927 554.998 298.113C554.998 298.3 554.924 298.479 554.792 298.611C554.66 298.743 554.481 298.818 554.294 298.818Z" fill="#CACACA"/>
<path d="M61.4208 110.589C60.0624 111.239 58.5419 110.26 57.3692 109.29L57.7887 109.652C55.716 111.665 54.747 114.56 54.2735 117.411C53.7995 120.258 53.7467 123.171 53.1499 125.998C52.5527 128.822 51.3138 131.66 48.9997 133.39C45.8996 135.707 41.624 135.558 37.8195 134.848C37.7688 134.837 37.7216 134.83 37.6709 134.819C38.6946 131.869 39.1107 128.743 38.8943 125.629C37.8745 128.75 36.1385 131.59 33.8245 133.923C31.3021 133.23 28.8401 132.335 26.4625 131.246C24.9241 130.539 23.2676 129.572 22.8406 127.936C22.4126 126.312 23.4065 124.609 24.7357 123.583C26.0648 122.558 27.696 122.023 29.2102 121.293C30.7219 120.565 32.2178 119.529 32.8231 117.964C34.2191 114.364 30.2422 110.233 31.7921 106.694C32.5564 104.954 34.4284 104.007 36.188 103.277C38.8741 102.166 41.6324 101.237 44.444 100.498C46.9122 99.8478 49.4894 99.3428 52.0038 99.7688C54.5182 100.195 56.9815 101.721 57.8864 104.105C59.3964 104.614 60.9994 105.188 61.9685 106.456C62.9371 107.722 62.859 109.901 61.4208 110.589Z" fill="#2F2E41"/>
<path d="M73.5072 106.417C69.6212 103.355 66.4793 103.878 64.0555 105.78C63.648 105.327 61.914 106.572 61.3269 106.393L59.2033 110.372C58.1106 112.297 57.6623 114.262 57.8389 115.367C55.8289 120.993 60.5954 124.793 66.2324 126.799C68.4816 127.605 70.9358 127.64 73.2075 126.899L73.2768 125.941L73.7037 126.727C73.7037 126.727 78.8569 137.317 80.0746 137.793C79.3357 135.879 77.3869 126.787 76.843 124.892C76.0971 122.313 76.6066 118.216 77.045 115.705C77.3182 114.156 77.3325 112.573 77.0873 111.02L77.0764 110.952L78.2821 113.381L80.9874 111.683C79.9535 108.678 79.9328 105.082 73.5072 106.417Z" fill="#2F2E41"/>
</g>
<defs>
<clipPath id="clip0_1_122">
<rect width="555" height="299" fill="white"/>
</clipPath>
</defs>
</svg>
