<svg width="332" height="298" viewBox="0 0 332 298" fill="none" xmlns="http://www.w3.org/2000/svg">
<g clip-path="url(#clip0_1_67)">
<path d="M329.087 113.961C328.968 113.961 328.852 113.925 328.755 113.857L167.671 1.68435C167.181 1.34458 166.599 1.163 166.002 1.16402C165.406 1.16503 164.824 1.3486 164.335 1.69004L4.41173 113.856C4.28524 113.944 4.12868 113.979 3.9765 113.953C3.82432 113.926 3.68898 113.84 3.60026 113.713C3.51154 113.587 3.47669 113.43 3.5034 113.278C3.53011 113.126 3.61618 112.991 3.74267 112.902L163.666 0.736245C164.351 0.258298 165.165 0.00137774 166 5.52558e-06C166.835 -0.00136669 167.651 0.252872 168.337 0.728567L329.421 112.901C329.522 112.972 329.599 113.073 329.639 113.191C329.679 113.308 329.681 113.435 329.643 113.553C329.606 113.672 329.532 113.775 329.432 113.848C329.332 113.922 329.211 113.961 329.087 113.961Z" fill="#3F3D56"/>
<path d="M13.5503 117.937L166.161 4.84497L319.929 125.984L174.024 212.471L94.8099 194.417L13.5503 117.937Z" fill="#E6E6E6"/>
<path d="M101.496 265.89H26.1029C25.64 265.891 25.1814 265.8 24.7536 265.623C24.3257 265.447 23.9369 265.187 23.6093 264.86C23.2818 264.533 23.0219 264.145 22.8446 263.717C22.6673 263.289 22.576 262.831 22.576 262.368C22.576 261.905 22.6673 261.447 22.8446 261.019C23.0219 260.592 23.2818 260.203 23.6093 259.876C23.9369 259.549 24.3257 259.29 24.7536 259.113C25.1814 258.936 25.64 258.845 26.1029 258.846H101.496C101.959 258.845 102.418 258.936 102.846 259.113C103.273 259.29 103.662 259.549 103.99 259.876C104.317 260.203 104.577 260.592 104.755 261.019C104.932 261.447 105.023 261.905 105.023 262.368C105.023 262.831 104.932 263.289 104.755 263.717C104.577 264.145 104.317 264.533 103.99 264.86C103.662 265.187 103.273 265.447 102.846 265.623C102.418 265.8 101.959 265.891 101.496 265.89Z" fill="#0EA5E9"/>
<path d="M53.1523 250.748H26.1029C25.64 250.748 25.1814 250.658 24.7536 250.481C24.3257 250.304 23.9369 250.045 23.6093 249.718C23.2818 249.391 23.0219 249.002 22.8446 248.574C22.6673 248.147 22.576 247.689 22.576 247.226C22.576 246.763 22.6673 246.304 22.8446 245.877C23.0219 245.449 23.2818 245.061 23.6093 244.734C23.9369 244.406 24.3257 244.147 24.7536 243.97C25.1814 243.794 25.64 243.703 26.1029 243.704H53.1523C53.6153 243.703 54.0738 243.794 54.5017 243.97C54.9295 244.147 55.3184 244.406 55.6459 244.734C55.9735 245.061 56.2334 245.449 56.4107 245.877C56.588 246.304 56.6792 246.763 56.6792 247.226C56.6792 247.689 56.588 248.147 56.4107 248.574C56.2334 249.002 55.9735 249.391 55.6459 249.718C55.3184 250.045 54.9295 250.304 54.5017 250.481C54.0738 250.658 53.6153 250.748 53.1523 250.748Z" fill="#0EA5E9"/>
<path d="M168.307 180.928C167.734 180.929 167.166 180.818 166.635 180.601L72.5159 141.552V19.3209C72.5172 18.2401 72.9471 17.2039 73.7115 16.4396C74.4758 15.6753 75.5122 15.2454 76.5931 15.2441H257.155C258.235 15.2454 259.272 15.6753 260.036 16.4396C260.801 17.2039 261.23 18.2401 261.232 19.3209V141.637L261.055 141.713L170.028 180.582C169.483 180.811 168.898 180.929 168.307 180.928Z" fill="white"/>
<path d="M168.307 181.219C167.696 181.22 167.09 181.102 166.525 180.871L72.2247 141.746V19.3209C72.226 18.1628 72.6866 17.0526 73.5056 16.2337C74.3246 15.4148 75.4349 14.9542 76.5931 14.9529H257.154C258.313 14.9542 259.423 15.4148 260.242 16.2337C261.061 17.0526 261.522 18.1628 261.523 19.3209V141.829L170.143 180.85C169.561 181.094 168.937 181.22 168.307 181.219ZM73.3895 140.968L166.969 179.794C167.842 180.148 168.819 180.142 169.688 179.778L260.358 141.06V19.3209C260.357 18.4717 260.019 17.6575 259.419 17.057C258.818 16.4565 258.004 16.1187 257.155 16.1177H76.5931C75.7438 16.1187 74.9296 16.4565 74.329 17.057C73.7284 17.6575 73.3906 18.4717 73.3896 19.3209L73.3895 140.968Z" fill="#3F3D56"/>
<path d="M327.923 112.796H327.806L260.94 141.346L169.454 180.407C169.097 180.558 168.713 180.636 168.325 180.638C167.937 180.64 167.553 180.566 167.194 180.419L72.807 141.264L4.29846 112.843L4.1938 112.796H4.07719C2.99622 112.798 1.95987 113.227 1.1955 113.992C0.431141 114.756 0.00119942 115.792 0 116.873V293.923C0.00120096 295.004 0.431141 296.04 1.1955 296.805C1.95987 297.569 2.99622 297.999 4.07719 298H327.923C329.004 297.999 330.04 297.569 330.804 296.805C331.569 296.04 331.999 295.004 332 293.923V116.873C331.999 115.792 331.569 114.756 330.804 113.992C330.04 113.227 329.004 112.798 327.923 112.796ZM330.835 293.923C330.835 294.695 330.528 295.436 329.982 295.982C329.436 296.528 328.695 296.835 327.923 296.835H4.07719C3.3049 296.835 2.56434 296.528 2.01824 295.982C1.47215 295.436 1.16522 294.695 1.16491 293.923V116.873C1.16597 116.12 1.4581 115.397 1.98022 114.854C2.50235 114.311 3.21405 113.991 3.96656 113.961L72.807 142.522L166.746 181.496C167.763 181.91 168.902 181.904 169.914 181.479L260.94 142.61L328.039 113.961C328.791 113.994 329.5 114.314 330.021 114.857C330.542 115.399 330.833 116.121 330.835 116.873V293.923Z" fill="#3F3D56"/>
<path d="M167.366 146.268C163.891 146.275 160.509 145.151 157.729 143.067L157.556 142.938L121.263 115.153C119.582 113.865 118.171 112.259 117.111 110.426C116.051 108.593 115.363 106.57 115.085 104.471C114.807 102.372 114.945 100.239 115.492 98.1931C116.038 96.1476 116.983 94.2298 118.27 92.5491C119.558 90.8684 121.165 89.4579 122.998 88.3979C124.831 87.338 126.855 86.6495 128.954 86.3716C131.053 86.0938 133.186 86.2321 135.232 86.7786C137.278 87.3252 139.196 88.2692 140.876 89.557L164.385 107.581L219.938 35.138C221.226 33.4578 222.833 32.0478 224.667 30.9884C226.5 29.9291 228.524 29.2413 230.624 28.9642C232.723 28.6871 234.856 28.8262 236.902 29.3735C238.947 29.9208 240.865 30.8657 242.545 32.1541L242.2 32.623L242.554 32.1609C245.944 34.7657 248.161 38.6086 248.721 42.8464C249.28 47.0842 248.136 51.3708 245.538 54.7659L180.194 139.976C178.683 141.94 176.739 143.529 174.515 144.62C172.29 145.711 169.844 146.275 167.366 146.268Z" fill="#0EA5E9"/>
</g>
<defs>
<clipPath id="clip0_1_67">
<rect width="332" height="298" fill="white"/>
</clipPath>
</defs>
</svg>
